<svg xmlns="http://www.w3.org/2000/svg" xmlns:xlink="http://www.w3.org/1999/xlink" xml:space="preserve" id="Layer_1" x="0" y="0" version="1.1" viewBox="0 0 400 155.38"><style>.st0{clip-path:url(#SVGID_00000134240310095562556070000017016049904821617822_);fill:#658a97}.st1{fill:#3267b1}.st1,.st2,.st3,.st4,.st5{clip-path:url(#SVGID_00000134240310095562556070000017016049904821617822_)}.st2{fill-rule:evenodd;clip-rule:evenodd;fill:#caa870}.st3,.st4,.st5{fill:#fff}.st4,.st5{fill-rule:evenodd;clip-rule:evenodd;fill:#3267b1}.st5{fill:#c0a2b2}</style><defs><path id="SVGID_1_" d="M0 0h400v155.38H0z"/></defs><clipPath id="SVGID_00000027576634907415431160000017545485088733968563_"><use xlink:href="#SVGID_1_" overflow="visible"/></clipPath><path fill="#658a97" d="m28.1 154.74-2.9-8.83H9.67l-3.08 8.83H.2l16.94-42.29h1.54l15.77 42.29H28.1zm-10.47-31.33-6.45 18.35h12.38l-5.93-18.35zM71.4 155.31 49.8 124.8v29.91h-5.41v-41.74h2.26l21.03 28.87v-28.87h5.44v42.34zM111.01 154.74l-2.93-8.83H92.56l-3.08 8.83h-6.4l16.99-42.29h1.49l15.72 42.29h-6.27zm-10.49-31.33-6.45 18.35h12.42l-5.97-18.35zM127.31 154.74V113h5.7v36.58h18.85v5.16zM170.14 136.06v18.65h-5.66v-18.65l-13.46-23.09h5.85l10.42 18.28 10.41-18.28h5.88zM209.03 118.13v36.58h-5.66v-36.58h-13.32v-5.16h32.87v5.16zM234.3 113h5.68v41.72h-5.68zM281.82 114.58l-1.93 4.84c-1.81-1.31-4.66-2.01-8.58-2.01-3.67 0-6.6 1.56-8.83 4.71-2.23 3.12-3.35 7.24-3.35 12.25 0 4.74 1.14 8.53 3.42 11.53 2.31 2.95 5.21 4.44 8.8 4.44 3.92 0 6.9-1.41 9.03-4.22l3.15 4.41c-3.3 3.27-7.59 4.91-12.77 4.91-5.48 0-9.77-1.99-12.92-5.95-3.1-3.87-4.69-9.08-4.69-15.48 0-6.25 1.66-11.41 5.04-15.55 3.37-4.14 7.66-6.18 13.02-6.18 4.46.02 8.08.76 10.61 2.3M293.8 152.83l2.06-5.26c1.09.79 2.38 1.39 3.99 1.98 1.59.52 3.02.79 4.29.79 2.18 0 3.97-.62 5.33-1.84 1.34-1.24 2.01-2.8 2.01-4.66 0-1.44-.37-2.73-1.09-3.92-.77-1.19-2.65-2.48-5.7-3.97l-3.32-1.54c-2.85-1.34-4.86-2.93-6-4.76-1.09-1.83-1.66-3.97-1.66-6.55 0-3.12 1.09-5.65 3.3-7.74 2.21-2.06 5.03-3.05 8.51-3.05 4.59 0 7.81.72 9.62 2.26l-1.71 4.91c-.74-.52-1.88-1.09-3.45-1.59-1.56-.5-3-.74-4.36-.74-1.94 0-3.45.55-4.52 1.64-1.14 1.09-1.66 2.48-1.66 4.22 0 1.12.15 2.03.57 2.93.37.84.99 1.59 1.66 2.18.69.59 2.16 1.39 4.37 2.48l3.42 1.64c2.88 1.36 4.84 2.98 5.98 4.81 1.19 1.91 1.79 4.22 1.79 7.09 0 3.17-1.29 5.85-3.82 7.99-2.5 2.18-5.85 3.27-10.1 3.27-3.73.01-6.88-.81-9.51-2.57" clip-path="url(#SVGID_00000027576634907415431160000017545485088733968563_)"/><path fill="#3267b1" d="m41.42 53.17-2.38 6.05c-2.28-1.69-5.88-2.48-10.74-2.48-4.59 0-8.26 1.99-11.03 5.9-2.7 3.97-4.14 9.03-4.14 15.23 0 5.93 1.49 10.71 4.26 14.43 2.83 3.67 6.47 5.46 10.99 5.46 4.86 0 8.6-1.71 11.26-5.11l3.92 5.36c-4.14 4.14-9.4 6.15-15.9 6.15-6.87 0-12.2-2.43-16.12-7.32-3.9-4.88-5.88-11.38-5.88-19.37 0-7.79 2.09-14.23 6.25-19.39 4.22-5.16 9.6-7.69 16.2-7.69 5.64 0 10.08.9 13.31 2.78M58.65 103.3V51.22h7.12v45.7h23.54v6.38zM103.67 51.22h7.17v52.08h-7.17zM168.9 103.3l-6.23-33.41-11.38 34.13h-1.79l-11.68-34.13-6.03 33.41H125l9.75-52.08h3.27l12.4 38.04 11.46-38.04h3.17l10.59 52.08zM217.83 103.3l-3.6-10.96h-19.4l-3.79 10.96h-8.01l21.18-52.75h1.88l19.62 52.75h-7.88zm-13.02-39.11-8.08 22.92h15.47l-7.39-22.92zM250.02 57.66v45.64h-7.09V57.66h-16.54v-6.42h40.97v6.42zM287.35 57.66v14.41h17.24v6.05h-17.24v18.8h23.64v6.38h-30.73V51.24h31.12v6.42z" clip-path="url(#SVGID_00000027576634907415431160000017545485088733968563_)"/><path fill="#caa870" fill-rule="evenodd" d="M400.17 62.82c.25 6.32-2.8 12.57-7.76 16.49-5.06 3.92-11.76 5.11-17.88 3.32-6.1-1.84-11.11-6.5-13.19-12.58-2.13-6.22-1.09-13.22 2.8-18.5 5.01-6.72 14.08-9.6 22-7.17 8.01 2.54 13.78 10.06 14.03 18.44" clip-path="url(#SVGID_00000027576634907415431160000017545485088733968563_)" clip-rule="evenodd"/><path fill="#fff" d="M363.34 74.01c-2.38-3.57-3.3-7.94-3.02-12.13.02-.52 2.11-9.52 3-9-.15-.1.1 1.04.1.99 0-.08 1.34-1.24 1.19-1.37-.12 0-.25.03-.35.03.15-.32.1-.37-.07-.17-.12-.12.45-1.36.59-1.41-.07 0-.67.84-.67.92-.27-1.41 2.75-3.38 3.72-4.19.89-.67 4.17-3.32 5.61-2.6.5.22-1.79 1.11-1.79 1.11.05-.12 1.64-.25 1.66-.35-.03.08-.32.1-.3.2.07.1 1.49.05 1.49-.25-.05-.94 1.79-.25 2.28-.72-.32.27-2.36.17-2.08.82.3.82 1.44-.84 1.59-.35.15.37-1.51 1.09-1.51 1.14.1.2 1.44-.35.97-.47.69-.62.79-.32 1.64-.57.5-.15 1.19-.05 1.64-.35.22-.2-.27-.6-.27-.6.37-.27.92.57 1.22.79-.03.2-.15.22-.42.22.57-.08 1.04.12 1.56-.03.5-.12.45.37.87.4 1.56.1 0-.67 0-.82 0-.03 1.02-.22 1.07.07-.07.1-.15.15-.27.22-.1.07 5.5.03 5.31.62-.02.15-.52-.15-.52 0-.05.05.6.79.72.94.3.6-.67.2-.37.65-.05-.2 1.22 2.53.82 2.43-1.02-.35-1.21-3-1.61-3.02.07.15.1.2.07.4-.07.07-.5-.22-.62-.05.07.2.15.4.22.59-.25.17-1.12 0-1.47.17-.12.08-.87 1.14-.79 1.17.15 0 .25-.05.32-.2.17 0 .97.52 1.04.67a.48.48 0 0 1 .03-.42c.27.07.87 1.34 1.07 1.19-.15.1.07 1.04-.15.94-.15-.12-.62-1.64-.79-1.56-.47.18.64 2.58-.77 2.58-.52 0-1.02.52-.87 1.11.22 1.04.84 1.09-.35 1.61.12-.67-.37-1.02-.44-1.51 0-.25-.84.1-.99.2 0 0 .07-.74-.1-.62-1.49.62-.42.82.4.99.47.12-.45.57-.47.62-.5.32 1.02 1.09.3 1.66 1.07.07-1.04 2.5-1.76 2.65-.37.05-1.21.3-1.21.87-.03 1.02-1.39.35-.17-.07-.37-.07-.3-.79-.85-.4-.92.74-.07 1.34.35 2.08.22.35.45 1.09-.05 1.44-.1.05-1.22.82-1.17.82-.5-.27-1.34-2.58-1.86-1.02-.2.6.15 1.36.72 1.74.64.42.7 1.24.94 1.88-.18-.5-1.09-.32-1.32-1.14-.22-.7-.84-1.34-.79-2.13 0-.65.08-.84-.07-1.56-.25-1.36-.25-.2-.99-.27.02 0-.62-2.87-.84-2.35-.08-.08-.08-.12-.08-.12-.17-.05-1.17.45-1.31.55-.97.74-1.79 1.34-2.21 2.48-.5 1.69-.94 1.79-1.41.05-.22-.67-.37-1.29-.25-1.98.08-.35.32-1.24.1-1.54.2.27-.35.45-.5.42-.59-.15 0-.67-.03-.72-.2-.2-.57-1.02-.72-1.07-.47-.12-1.34.17-1.49-.37-.2-.54-.07-.35-.59-.44-.5-.1.02-1.19-.35-1.39-.5-.18-.37 1.44-.42 1.61.05-.12.12-.2.2-.22-.12-.05.07.65.15.69.22.2.52-.65.72-.45.17.15-.12.65.17.99.35.42-.4 1.04-.65 1.29-.32.45-2.18 1.79-2.8 1.44-.3-.2.22-2.95.35-3.3.07-.32.79-1.79.44-2.11 0 0-1.09 3.89-1.09 4.12 0 .35-.03 1.94.37 2.06.92.27 1.07-.12.65 1.02-.32 1.04-1.09 1.74-1.44 2.78-.37 1.02 0 2.18.2 3.27.15.55.07 2.13.37 2.63.51.77.9 2.18 1.25 3.08" clip-path="url(#SVGID_00000027576634907415431160000017545485088733968563_)"/><path fill="#fff" d="M365.1 51.04c.4.05.94-1.69 1.39-1.29.05.2-.02.35-.22.47.3-.03.5-.67.87-.42-.52-.35-.67 1.98-1.31 1.69-.2-.1-.08-.55-.32-.55-.09-.07-.31.2-.41.1M366.22 53.03c.05-.37 1.39-2.83 1.76-2.43.15.12-1.11 2.03-.92 2.06.2.22-.94 1.13-.84.37M368.8 47.22c.18-.05 1.34-.5 1.34-.5.15-.15 1.49-.74 1.66-1.09 0 .05-3.22 1.71-3.3 1.71.12 0 .22-.02.3-.12M375.45 44.35c.07.07 1.09-.45 1.07-.15-.01.19-.95.24-1.07.15M376.88 44.39c.05.2.65.4.72.2.08-.15-.67-.15-.72-.2" clip-path="url(#SVGID_00000027576634907415431160000017545485088733968563_)"/><path fill="#fff" d="M375.74 44c.84.35 2.01-.05 2.83-.3.82-.2 2.88.44 3.47-.05-.37.32-2.38-.17-3-.15-.72 0-2.65.77-3.3.5M382.32 43.75c.22.03 1.14.05 1.29.2-.3-.3-1.07.02-1.29-.2M383.83 43.97c.12.12.99.42 1.09.27 0 0-1.04-.19-1.09-.27M385.56 44.35h-.1c.22-.08 2.08 1.29 2.08 1.29.15.2 2.21.94 2.09 1.14.47-.72 1.49 1.39 1.83 1.49-.2-.05-1.14-1.56-1.61-1.79-1.38-.85-2.67-1.79-4.29-2.13M385.69 45.29c-.15.05.05.27.15.2 0-.1-.03-.2-.15-.2" clip-path="url(#SVGID_00000027576634907415431160000017545485088733968563_)"/><path fill="#fff" d="M388.47 46.23c-.05-.03-.08 0-.15 0 .1.05.17.12.25.2.04-.1 0-.15-.1-.2M389.19 46.82c-.05.05 0 .15.07.15.1.03.07-.29-.07-.15M388.99 48.51c-.15 0 .12.35.22.3.05-.02.05-.05.07-.1.05 0 .07.05.12.05.16-.13-.34-.2-.41-.25M390.25 48.81c-.05 0-.05.3.1.25.05-.13-.02-.2-.1-.25M391.05 48.93c.03.18.1.2.25.18.09-.1-.25-.25-.25-.18M391.62 48.56c-.48-.42-.33.79 0 0M388.64 50.99c-.15-.05-.07.22-.03.2.08-.05.08-.12.03-.2M388.42 51.34c-.1.15-1.56 1.09-1.56.45 0 .1.12 1.24.2 1.22.35-.22-.1-.27.57-.5.49-.18.42-.87.79-1.17" clip-path="url(#SVGID_00000027576634907415431160000017545485088733968563_)"/><path fill="#fff" d="M387.05 52.98c-.15.35.37.74.05 1.04-.05-.07-.12-.1-.25-.1-.18.35.25.1-.18.22-.07.03-.22 1.02-.3.57-.5-.27-1.64 1.24-1.14 1.24.03-.07.03-.15.03-.22.27.07.2.79.15.87.7-.08.05-1.02.05-1.22.1 0 .22-.03.35-.07-.05.07-.05.2 0 .3.02-.1.02-.17.07-.25-.07.1-.07.22 0 .35.1.1 1.09-.74.1-.45.4-.59.4.35.72.3.12-.05.65-1.34.89-.6.47.2-.35-2.03-.4-2.18.01.14-.01.2-.14.2M384.92 55.21c-.03.03-.03.1 0 .15.1-.05.12-.1 0-.15M384.18 55.6c-.05.12 0 .15.1.15.05-.1-.01-.15-.1-.15M385.39 57.17c-.42 0-.08.37-.15.42.03-.05.15-.35.15-.42M385.04 57.74c-.15.07-.22.2-.2.35.2-.08.25-.2.2-.35M383.95 58.53c-.22 0 0 .35.08.2 0-.08 0-.15-.08-.2M383.11 58.33c-.65-.05-.42 1.19-.22 1.12.22-.07.57-1.02.22-1.12M380.08 61.53c-.07 0-.07.12 0 .12.1.01.08-.12 0-.12M383.38 60.42c-.05-.03-.12.12-.12.12.05.2.27-.12.12-.12M383.16 60.59c-.08-.07-.77 1.81-.08 1.36-.42.3.22.94.25.87.12-.27-.3-.47.05-.47 0 .1.07.18.15.18.08-.08.03-.2-.07-.22.92.67-.3.69.07 1.02.3.22.45-.57.45-.65.05.15.12.27.27.3-.05-.08-.12-.15-.15-.22.03.1.35.3.17.5-.15 0-.3 0-.52.07-.03.08.07.77.22.62 0-.05.05-.62.12-.54.03.05.1.54.27.35.15-.25-.32-.3-.17-.5-.1.15.89.5.05.87-.94-.08-.35.52-.69.72.47-.22-.1-.35.62-.45 0 0 .1.87.49.7.03-.2.08-.4.1-.6.05.12.12.2.25.27.4-.12-.62-1.41-.55-1.51.08-.27.55-.69-.42-.79.15-.05.27-.12.27-.27-.2-.03-.2.42-.22.42-.27.2-.12-.42-.12-.45-.25 0-.45 0-.65-.12.31-.39.16-1.04-.16-1.46" clip-path="url(#SVGID_00000027576634907415431160000017545485088733968563_)"/><path fill="#fff" d="M382.91 62.82c-.03-.03-.07-.03-.1-.07-.12 0 .1.4.17.22 0-.07-.02-.12-.07-.15M382.66 63.14c-.07.1-.69.99-.69 1.04.3.1.99-.86.69-1.04M383.26 64.93c-.17-.15-.07.3.05.17.02-.07.02-.12-.05-.17M382.91 65.23c-.15-.1-.07.2.05.15.07-.1.07-.13-.05-.15M384.7 65.67c-.1 0 .05.22.12.22.03-.07 0-.14-.12-.22M385.09 65.4c-.12.12-.12.17.03.32.22-.15.2-.24-.03-.32M382.24 65.62c.72.05-.05-.74-.2-.84-.35-.25-.99.77-1.31.99-.77.5-1.84.45-1.41 1.41.45.94.7.79 1.49 1.14.65.27.72-.03.89-.62.25-.65.47-.67.89-.99-.08.06-.99-1.04-.35-1.09M383.19 66.67c.07-.1 1.41-.3 1.44-.27.4.45-1.17.47-1.32.47-1.07.05.72.94.82.35-.08.1-.18.45 0 .35-.1 0-.22-.07-.32-.15.07.05-.42.2-.25.4.17.17.5.45.5.67 0 1.32-.87-.52-1.02-.47-.05 0-.07 1.04 0 1.09-.35-.34-.87-2.44.15-2.44" clip-path="url(#SVGID_00000027576634907415431160000017545485088733968563_)"/><path fill="#fff" d="M384.47 67.71c-.07 0-.07-.03-.07-.05.05-.15.65-.2.65-.15-.01.32-.45.17-.58.2M385.02 67.98c-.2.15.1.47.3.27 0-.24-.08-.3-.3-.27M385.74 66.04c-.32 0-.42.5-.32.67.05-.15.15-.25.35-.3-.1-.03-.74 1.44-.15 1.14 0-.2-.05-.3-.12-.45.07.05.17.1.27.15-.1-.1-.15-.25-.07-.42.22-.17.2.27.45.12 0-.05-.47-.57-.52-.6-.07-.13.48-.31.11-.31M373.96 62.25c-.18-.05-.1.7-.18.7.1-.05.23-.7.18-.7M373.73 63.17c-.24.15.15.27 0 0M373.96 64.09c-.03.05 0 .1 0 .15.1 0 .12-.05.12-.12-.02-.08-.07-.08-.12-.03M374.01 64.43c-.05.1 0 .17.08.25.07.05.07-.4-.08-.25M374.53 65.13c.12.6 3.4 4.31 3.62 3.72.25-.84-.87-2.16-1.51-2.48-.01.02-2.14-1.59-2.11-1.24M374.7 65.92c0 .15.07.27.22.27.08 0-.22-.27-.22-.27M375.15 66.47c0 .15.08.25.2.35.39-.25-.2-.2-.2-.35M375.15 66.19c-.07.07-.05.12.08.12-.01-.09-.06-.12-.08-.12M375.67 67.33c0 .03.05.42.15.32 0-.17-.03-.24-.15-.32M375.99 67.71c-.05.1 0 .12.07.12.11-.02-.07-.17-.07-.12M376.81 68.77c-.03.12.05.17.12.2.15-.07-.12-.22-.12-.22M378.07 66.02c0 .02-.05.02-.07.02 0 .08.02.12.07.15.03-.02.1-.17 0-.17M377.6 67.01c0 .1.08.2.2.25.22.05-.2-.35-.2-.25" clip-path="url(#SVGID_00000027576634907415431160000017545485088733968563_)"/><path fill="#fff" d="M378.07 67.56c-.5.12.22.65.3.55.08-.1-.15-.6-.3-.55M378.72 67.91c-.05.25.07.35.25.22-.03-.12-.15-.18-.25-.22M377.88 69.34c.12-.3 2.85-.22 3.02.08 0 0-.4.02-.5.02.1 0 .89.32.97.4 0 0-3.57-.35-3.49-.5M381.22 69.34c.03-.1.22 0 .17.1-.07-.02-.09-.05-.17-.1M381.62 69.84l-.1.1c0 .1.27.15.27.05.01-.1-.09-.15-.17-.15" clip-path="url(#SVGID_00000027576634907415431160000017545485088733968563_)"/><path fill="#fff" d="M381.97 69.89c-.15.03-.22.15-.15.3.35.1 2.51-.12 2.78-.42-.22.3-2.55-.15-2.41.15-.07-.03-.15-.03-.22-.03" clip-path="url(#SVGID_00000027576634907415431160000017545485088733968563_)"/><path fill="#fff" d="M382.69 70.14c0 .1-.15.05-.17.1.03 0 .47.32.57.2.32-.3-.4-.3-.4-.3M383.48 70.41s-.08.03-.1.03c-.08.05.25.25.17 0-.02-.03-.02-.03-.07-.03M383.83 70.68c-.2-.25 1.02-1.34 1.22-1.24.2.15-.15.3-.22.3.1 0 .27 0 .37.05-.16-.15-1.07 1.04-1.37.89M385.47 69.59c-.28.18.37.05 0 0M386.04 69.42c-.05.12-.05.2.07.27.2-.1-.07-.3-.07-.3M386.46 69.64c.17 0 0-.59.32-.5-.08.2-.17.45-.32.5M385.49 68.1c-.18-.3 1.26-.45.99.03l-.99-.03M386.18 67.66c-.07-.17 0-.3.2-.2.1.02-.17.3-.2.2M386.38 67.26c-.2-.25.38-.07 0 0M386.46 66.91c-.12-.25.32 0 .22.1-.07.03-.15 0-.22-.1" clip-path="url(#SVGID_00000027576634907415431160000017545485088733968563_)"/><path fill="#fff" d="M386.56 67.33c-.15-.32 1.04-.65 1.07-.02.05 1.09.52 0 .72.1-.15-.05-.27-.08-.37-.1.08-.05.15-.05.27-.05-.12-.07-.2-.22-.32-.3.05.1 2.63.99 3 1.04.2 0 1.19 1.64 1.22 1.26.12-.07-.2.52.05.35-.79.79-1.11-1.02-1.79-.47-.27.2-.35.6-.77.55.12 0-1.22-.4-1.07-.2-.17-.3.87-.84-.42-1.17-.3-.07-1.36-.12-1.36-.52 0-.12.62-.1.64-.1.07-.04-.87-.19-.87-.37" clip-path="url(#SVGID_00000027576634907415431160000017545485088733968563_)"/><path fill="#fff" d="M387.5 69.1c-.08-.15-.03-.4.1-.55.17.07.07.6-.1.55M387.18 68.6c-.12.1-.12.2-.07.35.14.02.09-.33.07-.35M387.62 64.11c-.12 0-.03.27.05.17.08-.04.08-.14-.05-.17M390.43 61.75c-.1.1-.1.15-.03.25.15-.1.15-.15.03-.25M390.58 60.66c-.22 0-.03.25.05.15.02-.07.02-.1-.05-.15M396.55 63.17c-.12.07-.17.15-.12.27.12.05.34-.35.12-.27M391.19 67.16c.03.15.42-.05.3-.12-.15-.13-.22 0-.3.12M392.06 66.69c-.03.12 0 .18.12.22.11 0-.07-.22-.12-.22M392.78 67.48c-.1.35-1.24.67-1.24.72-.05.59.97-.15 1.14-.3.87-.72-.57-.72-.5-.89-.12.32.6.18.6.47M393.33 67.81c0 .17.65.74.67.67.07-.15-.52-.72-.67-.67M393.7 68.47s.17.42.27.27c.03-.19-.05-.27-.27-.27M394.19 68.4c-.05.22.3.22.3.22 0-.02-.3-.27-.3-.22M394.49 68.77v.32c0 .06.08-.44 0-.32M394.64 68.5c-.07.1.08.55.15.47 0-.17-.07-.32-.15-.47M394.69 69.12c0 .12.07.18.17.22.08-.14 0-.24-.17-.22M395.63 68.97c-.12.03-.12.12-.05.17.08.1.28-.17.05-.17M394.34 69.54h-.07c-.12.15.25.22.25.15-.03-.07-.1-.1-.18-.15M392.34 68.97c-.12.03-.12.15 0 .22.15-.07.15-.14 0-.22M392.71 69.1c-.12.15-.03.2.15.2.07-.18 0-.25-.15-.2M392.58 69.62c0 .02-.03.02-.03.02.03.12.22.12.2 0-.04-.02-.07-.05-.17-.02M392.78 69.84s-.03.05-.07.05c0 .45.52-.15.07-.05M395.44 70.59c0-.1 0-.2.07-.25-.07.1-.07.22 0 .3.2-.05.27-.2.3-.37.2.22-.32.52-.3.62-.03-.11-.03-.21-.07-.3M397.2 70.38c.22-.05.32-.15.32-.44 0 0-.52.4-.32.44M397.07 70.53c-.07.15-.27.2 0 .25.08-.07.05-.15 0-.25M395.63 71.38s-.12.25-.15.25c.03.07.1.1.15.1.03-.03 0-.3 0-.35M394.99 72.07c-.07.1.27.3.22.42.05-.14-.07-.47-.22-.42M394.57 72.12c-.07.3.05.5.3.55.07 0-.23-.47-.3-.55M369.94 63.19c-.1.25-.32 1.26 0 1.39.5.2.55-1.19 0-1.39M367.71 65.33c-.03 0 .05.2.05.2s.17-.28-.05-.2M389.93 70.09c-.57.18-.45 1.46-.67 1.94-.22.47-1.59-.03-1.56-.5 0-.2.37-.05.45-.1.42-.2-.25-.22-.3-.25.15.1.5-.69.42-.79.22.35-2.21.25-2.23.32-.08.12.57 0 .57 0-.5-.3-.4 1.37-1.11 1.07-.37-.2-.6-.44-1.02-.05-.2.25-.57 1.09-.79.65-.27.05-.27.74-.7.92-.44.2-.97.35-1.46.52-1.26.4-.42.35-.79 1.41-.12-.03-.2-.08-.32-.15.84-.32 0 3.1 1.61 2.41.67-.25 1.73-.54 2.43-.74.59-.15 1.24 0 1.81-.15.05-.05.15.65.27.65.1.05.74-.45.72-.52.07.22-.69.65-.55.77.25.25.4-.47.55-.5-.35.15.72.89.72.89.35.5 1.79-.52 2.01-.79.12-.2 2.31-3.15 1.96-3.22-.1.05-.18.07-.25.15-.4-.25-1.14-1.51-1.11-1.83-.01-.33-.39-1.94-.66-2.11" clip-path="url(#SVGID_00000027576634907415431160000017545485088733968563_)"/><path fill="#fff" d="M388.05 78.12c-.28.35.22.03 0 0M388.84 78.02c-.12.12.12.2.12.15.03-.1 0-.17-.12-.15M388.12 78.42c.03-.05.72-.2.72-.2.15.42-.57.72-.79.72-.15-.07-.13-.47.07-.52M388.24 80.73c-.27-.13.4-.22 0 0M390.97 79.02c-.12-.57 1.07-1.04 1.39-1.29.97-.65 1.19-1.04 1.64-1.98-.02.1.22.74.27.62-.15.66-2.55 2.42-3.3 2.65" clip-path="url(#SVGID_00000027576634907415431160000017545485088733968563_)"/><path fill="#fff" d="M393.33 77.5c-.05.03-.1.03-.12.12-.06.06.42-.04.12-.12M398.41 68.62c-.12.07-.12.17-.05.32.2-.14.2-.19.05-.32M381.32 73.64c-.07-.08-.15-.03-.17.03-.12.11.32.24.17-.03M363.81 61.23c-.12-.03-.12-.17-.12-.22.15-.15.15.22.15.22M362.1 68.77c-.08-.08-.12-.15-.12-.27.05-.1.27.4.12.27M362.9 69.2c-.05 1.04-.3 1.04-.05 2.23.12.35.5 1.64.92 1.73.37.1-.92-3.74-.87-3.96M364.83 72.42c-.12 0-.15-.07-.15-.2.1-.1.3.2.15.2M365.05 72.02l-.12.15c0 .05.07.1.17.05.03-.02.08-.25-.05-.2M363.72 66.91c-.15 0-.08.2-.03.25.03.05.22-.2.03-.25M371.35 79.76c-.07-.03-.12-.03-.2 0 .05.1.08.15.15.17.05-.02.05-.12.05-.17M372.64 80.58c-.27-.03.35.37 0 0M372.92 81.84c1.36.97 4.04 1.09 5.65 1.17 1.74.12 5.11.45 6.67-.69-.5.32-2.08.2-2.73.2-1.41.07-2.85.07-4.29.03-1.11-.04-4.41.26-5.3-.71" clip-path="url(#SVGID_00000027576634907415431160000017545485088733968563_)"/><path fill="#3267b1" fill-rule="evenodd" d="M354.51 42.11c.17 5.73-2.5 11.41-7.09 14.98-4.56 3.57-10.67 4.61-16.2 3-5.58-1.66-10.15-5.88-12.03-11.43-1.91-5.66-.99-12.05 2.58-16.82 4.51-6.1 12.75-8.71 19.99-6.5 7.25 2.31 12.53 9.18 12.75 16.77" clip-path="url(#SVGID_00000027576634907415431160000017545485088733968563_)" clip-rule="evenodd"/><path fill="#fff" d="M341.27 57.29c-.6.45-2.01.84-2.23 1.66-.15.52 1.21.03 1.31-.02.65-.45 1.56-1.19 1.61-2.06-.27 0-.54.15-.69.42m11.8-7.64v.05c.07-.2.15-.4.17-.55-.09.06-.21.3-.17.5m-32.16-16.52c-.2.3-.35.6-.47.94.27-.29.39-.61.47-.94m33.06 13.55c.05.02.05.05.05.05.65-2.75.92-7.29-.45-9.52-.5-.74-.62-2.11-1.14-3.08-.57-1.09-1.27-2.11-2.06-3.08-1.71-2.03-3.8-3.67-6.15-4.81 1.71.97 3.55 2.48 3.08 4.51.12 0-1.44-1.09-.94-.17.22.42-.79 1.59-.37 1.96.07.12.17.2.3.3-.3.1-.37.4-.77.2.05.2.22.42.2.6-.22-.2-.45-.47-.7-.7-.1.5.17.84.25 1.19-.5.2-1.19.35-1.76.5-.6.2-.79.2-1.37.15.15.62-1.29 1.44-1.56.62-.07-.32 1.07-.07 1.14-.32.12-.99-2.95-1.29-3.47-1.09-.69.32-2.7.89-2.93 1.59-.07.3.99 2.03 1.49 1.93 1.19-.4.52-2.41 2.11-2.26-.15.32-.87.52-.67 1.02.32.99.15.5-.32 1.24-.3.55-2.5.6-2.33-.17.08-.07.15-.07.25-.03-.03-.27-.07-.45-.1-.69-.7.2-.35.92-1.22.84-.79-.1-1.36.5-2.21.4-1.09-.1.12 1.11-.77 1.29-.94.3-1.81-.97-2.23.62-.65 2.6 2.7.57 3.37.42 1.56-.35 2.43 1.49 2.58 2.53.47.12.2-.55.5-.59.07.07.15.1.22.15.42-.55-1.04-1.19-.94-1.86.37.27.79.52 1.12.92s-.05.55.15.99c.25.69.52 1.14 1.14 1.34l-.12-.3c.3.12.03-.59.03-.74.32-.45.89.2 1.21-.1-.52.4-.32 1.26.25 1.49.65.3 1.88-.15 1.59.92-.3 1.17-2.43.42-3.13.03-.25-.17-.47-.3-.82-.35-.47-.1-.55.5-.79.5-.5-.1-1.47-.89-1.84-1.32-.72-.65.35-1.17-.94-1.66-.65-.25-2.46-.27-2.78-.72-.57-.82-3.17.87-3.79 1.22-.74.4-1.17 1.24-1.59 2.03-.59 1.26.15 1.83.22 3 .15 2.13 2.63 2.06 3.99 2.65.35.2 1.79 1.07 1.81 1.39.07.35-.32.6-.42.84-.17.45.27.99.42 1.39.62 1.02.62 1.04-.03 2.03-.55.69.42 2.06.82 2.65.69 1.11 2.01 1.14 3.12 1.07 1.21 0 1.71-.87 2.65-1.49.67-.37 1.73-.18 1.96-1.17.25-.94-.02-1.64.99-2.21.35-.1 4.44-2.58 3.7-3.37-.2-.2-3.77.3-1.27-.45.87-.27 5.06-1.84 3.79-3.17-1.09-1.12 1.86-1.04 2.46-.3.57.74.74.25.74 1.41.03.52.72 1.46.59 1.86.94-1.37 1.17-3.15 2.06-4.59.3-.47.52-.82.89-.27.62.89.05 1.49.32 2.38.19-.5.1-1.15.42-1.64m-8.96-3.97c-.07 0-.07-.1-.07-.15.07 0 .12.1.07.15m-.1-.25v.2c-.14 0-.04-.15 0-.2m-4.48-.1c-.37-.05-1.24-.05-1.66.1-.27-.59.77-2.06 1.44-.89-.03-.05-.1.15-.1.15.22.32.57.12.82 0-.15-.05-.35-.1-.52-.15.27-.25.57-.45.92-.55.1.17.07.37-.12.5-.2.25.5.4.57.5 1.2.89-1.11.39-1.35.34m-2.98 12.23c0-.12-.1-.15 0-.3.07-.03.52 0 .55 0-.1.27-.3.37-.55.3m3.77-4.1c-.22-.42-.87-.72-.74-1.29.07-.45.2-.7-.15-.94-.12-.15-1.41-1.74-.47-1.64.57.05 1.84 3.6 1.84 4.09-.21-.02-.31-.12-.48-.22m2.83-7.34c.3-.6-.62-1.12-.27-1.69.15-.3.72-.15.84-.45-.69-.35.22 1.96.25 2.03.49 1.1-.8.91-.82.11m1.36 4.49c-.32-.02-1.98-1.26-1.49-1.41.35-.1 1.17.79 1.73.84-.09.2-.16.4-.24.57m-25.32.62c.25-1.74-1.02-3.17-1.29-4.81-.3-2.08.2-3.99.27-6.1-1.09 2.18-1.02 4.91-.74 7.27.08.72.45 4.96 1.54 5.31-.15-.33-.38-1.64.22-1.67m.25-13.94c-.25.35-.47.77-.54 1.19.19-.29.41-.76.54-1.19m.07-.37c-.05.07-.2.27-.15.35.03-.12.1-.22.15-.35m-.62 1.62c-.08.1-.17.32-.15.5.15-.01.27-.41.15-.5m13.05-3.13c-.15-.15-.82-.45-1.02-.25-.52.89 1.09.74 1.34.79-.05-.24-.15-.44-.32-.54m10.29 1.36c.2.12.35.15.57.22.1-.3-.42-1.74.59-1.64 0-.36-1.81.55-1.16 1.42m-5.43 10.4c.08-.1-.1-.22-.17-.3-.05.05-.05.15-.07.25.14.05.14-.1.24.05m-2.51-1.54c-.22-.3-.5-.44-.79-.44-.2.35.27.59.42.77.08-.16.2-.28.37-.33m-1.66-1.34c0 .22.03.4.15.55.05-.3.3-.25.27-.59-.15-.21-.29-.09-.42.04m.5-.55c-.05-.02 0-.15-.12-.15-.03.12-.1.2 0 .27.04-.07.12.01.12-.12m11.95-10.36c-.15 0-.27-.2-.42-.05.1.07.22.2.35.2.02-.1 0-.13.07-.15m4.89 19.69c-.22.45-.12.77-.12 1.09.27-.12.42-.94.27-1.19 0 .07-.13.07-.15.1m-14.76-25.2c0 .15-.15.15-.22.2.35 0 .35.05.57-.17-.13-.03-.23-.08-.35-.03m8.83 5.51c.25.15.4.55.77.2-.08-.18-.62-.53-.77-.2m1.11-2.24c.03.2.22.47.5.4-.25-.07-.27-.42-.5-.4m-13.04-2.48c.37 0 .72-.05.97-.2-.32-.27-.75-.04-.97.2m1.02-.1c.27.1.37-.05.59-.1-.17-.22-.42.05-.59.1m-2.63 11.07c.4-.05 1.34-.5.84-.99-.35.2-.77.37-1.02.69.03.15.1.2.18.3m2.13-10.87c-.12-.05.03-.07 0-.1-.2 0-.42 0-.52.1.22.08.32.08.52 0m5.61 5.76c-.25-.3-.45-.47-.87-.32-.57 1.02 1.29.57 1.51.3-.17-.08-.57-.33-.64.02m-2.68-1.61c-.47-.03-.3-.62-.35-.92-.15-.57-.87-.69-1.17-1.21-.47-.79-1.69-1.09-2.03-.15-.89 1.26-2.18.87-3.25 1.76-1.91 1.79.72 1.04 1.71 1.34 1.29.47 1.44.32 2.68 0 .27-.06 1.99-1.35 2.41-.82m-4.34 7.66c.4-.2 1.04.1 1.34-.2.1-.45.35-2.38-.37-2.01.07-.02-1.07 1.94-.97 2.21m2.5-12.33c.27-.08.42.12.62-.05 0 0-.05-.03-.05-.07.2-.05.4-.07.62-.1-.47-.13-.84.05-1.19.22m.28.42c.15 0 .42 0 .45-.1-.01-.05-.58-.14-.45.1m-6.9 2.98c.17-.7 1.54-.52 1.39-1.44-.87.25-1.74.65-2.68.77.25-.42 1.32-.79 1.69-1.02.84-.6 1.39-1.12 2.18-.65-.4 0-.5.22-.5.35-.07.03-.15.05-.22.15.45-.1.65-.45 1.09-.45-.05.12-.07.12-.05.2.27.2.5-.1.72.1-.65.2-.82.79-1.54.4-.3-.2-1.11.92-1.14 1.14.45.27.72-.25 1.14-.35-.07.2-.15.35-.2.5.7-.2 1.41-.74 1.66-1.14.5-.22.99-.45 1.34-.87-.07 0-.2-.02-.27-.12.15-.05.27-.15.42-.2-.22-.05-1.49.4-1.56.17.47-.27.97-.37 1.41-.5-.3.02-.65.02-.92 0 .2.02.42 0 .62-.12.02-.05-.08-.05-.12-.1.35-.15.65-.4 1.07-.45-.22.15-.5.1-.62.35 1.14-.2 2.33-.2 3.42-.6-.57-.25-1.17.2-1.86.05.72.2 2.06-.35 2.78-.3 1.24 0 2.38.25 3.57.5-3.47-.89-7.17-.74-10.52.5-2.78.97-6.72 3.03-8.08 5.75.3-.42 1.14-.79 1.64-1.04-.05.17 0 .3 0 .35.07-.25.52-.15.72.05-.12.07-.22.1-.3.25.18.05.18.17.25.32.27-.42.82-1.37 1.26-1.44.2.72.1.47.27.79-.42.37-1.56.79-.89 1.51 1.04-1.09 2.26-2.16 3.15-3.3l-.32-.11m-3.42.74c0-.12.12-.15.15-.2.07.05-.08.23-.15.2m.49-.54c.1-.2.35-.25.5-.37-.07.15-.32.29-.5.37m.15-.42c.12-.15.45-.32.67-.32-.1.14-.39.19-.67.32m.92-.38c.1-.22.3-.55.52-.69.05.35-.37.47-.52.69m6.67-1.56c.3.05.37-.17.64-.17-.05.05-.15.02-.15.15.35.52 2.28 1.17 1.94.03.42-.87-.79-.32-.87-.45.03.03.4.32.4.32-.45.05-.74-.45-1.17-.25.12-.3.52-.2.77-.42-.47-.32-1.36.37-1.56.79" clip-path="url(#SVGID_00000027576634907415431160000017545485088733968563_)"/><path fill="#c0a2b2" fill-rule="evenodd" d="M383.75 14.09c.15 4.56-2.06 9.08-5.65 11.98-3.67 2.88-8.53 3.67-12.92 2.38a14.432 14.432 0 0 1-9.67-9.1c-1.54-4.46-.82-9.62 2.08-13.47 3.6-4.84 10.19-7.02 15.97-5.18 5.81 1.78 10 7.31 10.19 13.39" clip-path="url(#SVGID_00000027576634907415431160000017545485088733968563_)" clip-rule="evenodd"/><path fill="#fff" d="M367.19 4.22c-.05 0-.12.05-.12.07 0-.03.22.07.22-.12-.03.05-.08.05-.1.05m9.97 4.58h-.07c-.01 0 .14.03.07 0m.49.57s.08 0 0 0m-1.91-6.84c.07-.03.12-.05.15-.05 0-.15-.44.03-.52-.1.12-.2.42.12.57-.15.12-.25-.37-.15.07-.37-.67-.37-1.41-.77-2.13-.97-.32-.15-2.23-.3-2.11-.2 0-.05-2.4.37-2.48.37h.4c-.05.3-.99.17-1.14.37.07.05.87.05.89.1 0 0-.54.15-.65.15.57.44 1.34-.25 1.91.2.08.05.8.74.84.65-.05.05-.4.15-.32.25.12 0 .25.05.35.05 0 .03-.03.65.08.82.22.3.64.65 1.02.67.5.05.47-.67.89-.84.72-.46 1.46-.63 2.18-.95m-.15 5.31c-.1-.03-.07 0 0 0m.28.1c-.2.04.12.04 0 0m1.29 1.63h-.05.05m-1.02 1.99c-.15-.03.07 0 0 0m.32.12h-.03c-.12.03.23.03.03 0m.57-2.21c.05 0 0-.02 0 0 0 0 0 .05 0 0m0 .2c0-.07 0 0 0 0 0 .05 0-.07 0 0m-.79 2.23s-.03 0 0 .05c0-.05.05-.05.05-.05m-.05-.25h-.03s.1.03.08 0h-.05m.12.23h-.05c0 .02.05.12.05 0m.08-.27c-.05.04 0 0 0 0m.84-2.04s.03-.05.03-.1c-.13 0-.15.05-.03.1m-9.42-5.45c.15.05 0-.15-.02-.05l.02.05m.2-.95c.02 0 .02 0 .07-.05-.05-.1-.22.15-.07.05m-.13.15c-.03.05.32.15.35 0 .05-.15-.3-.02-.35 0m-.15 2.09c.05 0 .07-.05.07-.1-.07-.05-.15 0-.15.1h.08m0-2.41c-.07 0-.1.03-.1.08.08 0 .08 0 .1-.08m-.3 2.85c-.07 0 .07.1.12.05.01-.02-.04-.05-.12-.05m.03-1.78c-.18-.15-1.19-.15-.97.05.1.1.94.02.97-.05m.89-.77c.03 0 .1.03.15 0 0-.08-.35-.03-.15 0m-.34.72c-.28-.05.14 0 0 0m1.78.24c-.05-.05-.08-.05-.08 0 .01 0 .18.03.08 0m-.47-1.39c-.57.15-1.09-.5-1.74-.37-.2.03-.35-.12-.57-.12-.2 0-.37.5-.5.3 0-.15.05-.2.2-.3-.27.1-.65-.05-.7.3.08.05.2.1.32.15-.07.03-.17.03-.25.05.05.2 2.18 0 2.5.42.12.12-.52.2-.07.35-.03.15-.65.15-.74.18.02.15 1.79.2 1.79.35l-.25-.2c.12.05.25.1.35.15.37.02-.3-.6-.3-.6 0 .1.99.2.79-.2-.06-.11-.93-.48-.83-.46m1.86 3.03c-.18.1-.37.47-.45.74.2-.05.37-.05.57-.05-.15.27.12-.07.37.15-.07.01-.51-.84-.49-.84m4.19 1.99c-.05-.05-.05-.05-.07 0 0 0 .17.09.07 0m-7.86-3.6c0 .07.12.12.12 0-.05 0-.05-.03-.12 0m.07-1.32c.05-.05.08-.05.12-.05-.05-.07-.25 0-.25.05h.13m1.71 1.54s.08 0 .08-.07c-.05.02-.15.02-.08.07m6.15 3.3c-.24 0 .08.03 0 0m-.54 7.81c-.5-.22-.87-.74-1.44-.45.35-.2-1.07-.15-.87-.1.12-.1.2-.17.27-.3a.989.989 0 0 0-.42 0c.92-1.29-3-1.59-2.95-1.96 0 .12-.2.5-.12.57-.12-.07-.08-.59-.08-.59-.42-.1-.42.4-.57.67-.05.12-.72.03-.87 0-.64-.17.15-1.29-.72-1.17-.97.15.1-.59-.2-.92-.3-.42-.84 1.32-1.37.27-.27-.64.22-2.55 1.02-1.59-.03-.05-.1-.1-.17-.12-.08-.35 1.81.37 1.51.67.3-.25-.37-.84.08-1.31.44-.37.52-.52.35-1.07.03.1.1.22.1.35.08-.2-.07-.35.12-.45.1-.15.59-.32.15-.25 0-.2.52-.05.52-.2-.52-.15.92-.84.72-.65h.17c-.17-.03-.35.25-.35.25.5.05.72-.5.74-.55-.08.1-.97.42-.82-.15.1-.05.18-.07.25-.15 0-.1-1.04.25-.89.42-.32-.37 2.31-.92 2.16-1.22-.07-.15-.72-.07-.69 0-.03-.1.4-.15.42-.22-.57.12-.79-.67-1.14-.99.08.07-.44.42-.52.47-.37.03-.05-.47-.22-.55 0 .05-1.29-.3-1.21 0 0 .2.35.89.25 1.04-.08.05-.55.69-.4.79-.2-.12-.4-.65-.49-.69-.35-.08-.77-.05-1.14-.15-1.22-.35.03-1.19-.42-1.24 0 0 .79 0 .84-.25-.05-.05-.47-.1-.55-.1.2 0 .79.05.57-.12.07-.17.77.18.79-.15-.03-.08-.1-.18-.15-.2.05-.02.08-.07.15-.12.07-.18-1.14-.1-.74.3 0 0-.99-.35-.79-.45-.12-.1-.27-.17-.42-.25 0-.25.5-.3.64-.4-.27 0-.94-.03-.79.35.03.2.15.59.17.57.05-.12.05.35-.07.32-.17 0-.37-.44-.52-.15.17.17-.15.03-.55.05-.07 0-.82.12-.89 0 .07.15.3-.15.37-.05-.22-.2-.12.25-.22.32.1-.08-1.41-.15-.99-.22-.12.25-2.31-.6-2.43-.05.05-.02.12-.1.12-.1-1.04-.1-2.08 1.17-2.73 1.94.1 0 .17 0 .22-.1 0-.03-.05-.05-.05-.1.35-.15 2.16.5 1.99.65.17-.1-.22-.22-.2-.37.05.03.07.08.15.08-.22-.15 1.41.87 1.29 1.24h-.22c.07.2.5.42.72.3-.07-.05-.15-.1-.22-.17.05.02.5.17.35.3-.12-.03-.2-.03-.3-.03-.12.03.25 1.44.32 1.51.35.62 1.29 1.09 1.44 1.81-.02.05-.07.1-.07.1.07-.15.62.74.77.79-.22-.05-.92-1.26-.84-1.44-.03.05 2.21 2.41 2.43 2.48.65.27 1.19-.07 1.91.57.17.17.17.35.32.5.57.37.47 0 .82 0 .59.03-.05 1.86-.07 2.09-.18 1.26 1.39 1.81 1.69 2.9.35 1.17-.37 2.11-.37 3.27 0 .6.22.79.05 1.49-.18.42.17.65.07.6 0 .05.03.12.07.17-.05.03-.07.03-.15.03.07.1 1.02.5 1.02.42 0 0 0-.03-.05-.03.07-.05.42-.15.47-.12-.15-.35-.87-.27-.69-.22-.08.25-.03.1-.35.08.07-.08.47-.37.5-.32-.22-.15.57-1.54.42-1.64.08.17-.07-.2-.07-.25.05.08 1.94-1.24.94-1.34 0 .5.84-.25.92-.32.27-.42.3-1.11.77-1.49.57-.42.82-.3.94-1.21.04-.39.64-1.58.49-1.93M381.8 7.59c0-.07-.35.05-.35.05.07.1.17.18.35.18.02-.08.02-.16 0-.23m-25.4 4.31s-.03 0-.03.05h.07c.01-.05.01-.05-.04-.05m-1.39 6.3c-.05-.05-.08-.05-.12-.08-.08.21.34.18.12.08m24.6-12.62c.08.15-.44.22-.44.17 0 .05.05.1.07.1 0 .1-.42.1-.42.1.69-.07.62 1.04-.35.92-.55-.08-.32 1.44.35 1.17.3-.2 1.26-.84 1.19-1.17-.08-.35 1.69-.03 1.86.67-.2-.02-1.34-2.78-1.69-2.45.05.07.05.12-.03.15.03-.33-.49.41-.54.34m.4 1.79c-.05 0-.08.03-.08.03.08.09.15-.01.08-.03m.1-.03h-.03l.07.03-.04-.03m.77-.5c-.2 0-.07.2 0 .17.07-.07.02-.14 0-.17m0 .55c0 .05.18-.3-.05-.3-.32-.05.05.28.05.3m.15 6.42c.03.03-.12.07 0 .12.02-.04.02-.04 0-.12m-24.36-1.78-.07-.03c.1.05.14.05.07.03m25.92-3.4c-.12.47-1.36-.17-1.44-.55-.17-.74-1.91.1-2.28.22-.65.17-.62.97-1.12 1.51-.45.57-.65 1.86-.25 2.5.18.37.89 1.49 1.46 1.26.5-.25 1.94-.84 2.36-.05.2.27-.17.57 0 .89.3.55.5.97.72 1.49.22.55-.35.99-.1 1.44.3.64.57 1.26.87 1.91 1.37-3.38 1.29-7.3-.22-10.62m-1.69 5.46v.05s.13-.1 0-.05m.32-.5c-.05.03-.07.05-.07.1.07-.05.07-.07.07-.07m-24.33-1.52c-.02 0 .08.1 0 0m.28.2c-.07-.1-.15-.1-.2-.12 0 .07 0 .15.05.22 0 0 .17-.1.15-.1m21.3-7.74c-.03.03.17.2.1.25.07-.1.03-.05.1-.05 0 .2.45.17.27.35-.15.1-.22.15-.27.32.12.03.22.03.35.03-.05-.05-.45.2-.37.25.15.05.89-.35.97-.27.12 0-.37-.77-.72-.82.07-.05.15-.15.15-.25h-.25c.03-.05.03-.1.07-.15-.23-.25-.27.24-.4.34m.27.6c.13.05-.02-.05 0 0m0-.2c0 .05-.07.1 0 0m-1.36 4.61c-.07.03.12.1 0 0m-.52-6.1c.22.03.3-.1.3-.25-.12-.25-1.26-.22-1.41-.05.05.05.12.1.25.1-.27.35-.05-.15.07.15-.05.05-.05.08-.05.08-.03.14.77 0 .84-.03m.74 5.98c0 .03-.02.08-.02.12.07-.05.07-.1.02-.12m1.27-5.31c.15 0-.05 0 0 0m.42 1.44c-.12-.07 0 .07 0 0m-.17.22s.05-.05 0 0m-.82-1.34c.02-.17 0 0 0 0m.17.2-.03.05c-.04.1.13-.1.03-.05m-.52.8c.57.15.87-1.09-.03-.4.08-.05.15.45.03.4m.35-1.79s.07.1.07-.03c0 0-.07-.02-.07.03m.74 2.08s0-.02 0 0m-.67-1.46c-.07 0-.07.03-.05.07 0 0 .2-.07.05-.07m1.37 3.22c-.05.03.15-.07 0 0m-1.34-3.1-.03.03c0 .12.15-.13.03-.03m-10.12 6.2c-.02.1.12.25.12.25s-.07-.29-.12-.25m-.67.75c.07 0 .07-.05.02-.12 0-.01-.02.07-.02.12m1.04.17c.07.02.2.02.27-.03.05-.05-1.71-.84-1.51-.27.37.15.74.15 1.24.3m1.56.18c0-.03-.27 0-.27 0-.08.15.32.15.27 0m-1.63.19c.15.05-.15-.22-.25-.05.02.1.22.03.25.05m.42-.54c.05 0 .05-.05.05-.05-.08 0-.08 0-.05.05m-.75-.97c-.1.03 0 .03 0 0m.15 0v.18c0-.1.1-.15 0-.18m2.53 2.65c.05 0 .05-.07 0-.07h-.07s.05.07 0 .07c.05.05.07.05.07 0m-.44-.07c.07.03 0-.15 0 0m.37-.42c-.03.1 0 .1.05 0 0 0 0-.05-.05 0m-.03-.4s0 .03.03.03l-.03-.03m.1.2c-.02.05-.02.05-.02.1.02-.05.02-.05.02-.1m-.1.35c-.05.05 0 0 0 0m.1-.4c0-.05-.02-.05-.07-.05 0 .05.05.07.05.07m-.08-.27c0-.15 0 .1 0 0m-1.91-.25c.08 0 .79-.1.79-.1-.1-.35-.42 0-.67-.15.03.1.1.12.15.2-.04.01-.19.05-.27.05m-2.06 3.33-.08-.03c-.09.08.18.15.08.03m2.78 7.24c.07-.03 0-.2-.03-.2-.04 0-.12.3.03.2m-.07.4c0 .1-.12.1-.12.22.12 0 .35-.37.18-.47-.06.1-.06.17-.06.25m-2.93-7.59c0-.05-.03-.05-.07-.07.05.22.07.22.07.07m8.61 8.73c-.03-.05-.1-.1-.18-.05.03.07.3.15.18.05m-5.61 3.07c.07 0 .15 0 .2-.1-.05.01-.22.05-.2.1m-9.7-20.93h.15c-.12-.15-.15-.32-.32-.4-.07.05.13.35.17.4m.25.32c-.03-.15-.1-.22-.25-.15-.12.13.52.43.25.15m9.67 21.16c-.07-.15-.15-.15-.22 0 .08.1.15.1.22 0m1.94-3.87c.07-.17-.22 0-.22 0 .07.1.19.1.22 0m2.21 1.41h-.12c-.01.03.24 0 .12 0m-1.94-1.44c.05-.15-.35.12-.27.15.12-.02.2-.07.27-.15m-4.96-19.91h-.15c.03.05.08.05.15 0m2.51 20.09c-.12-.1 0 .17.03.12-.01-.02-.01-.07-.03-.12m1.09.62c-.08 0 .12.02 0 0m.5-.18c-.05 0-.08.03-.12.03.04.02.19-.03.12-.03m-.55 2.68c-.1-.2-.25-.25-.45-.22-.07.07.15.27.15.32-.03.2-.6 0-.6.2.03.05.57.05.57 0 0 .12-.2 0-.2.12.06.18.88-.02.53-.42m-8.14-25c-.05-.07-.1-.07-.18-.05.05 0 .18.1.18.1m-.34.25c-.05.05-.07.12-.12.2.22.05.5.05.77-.08 0 .12-.27.03-.3.12.15.15 1.11 0 1.19-.25 0 .11-1.47-.04-1.54.01m.29-.1.08-.05c-.08-.05-.15 0-.2.05h.12m-1.58.89c.52 0 .94-.05 1.39-.37-.4 0-.87-.12-1.29-.03-.1.01.05.4-.1.4m1.73-1.04c.2.1.35.05.45-.1-.1-.02-.4.13-.45.1m1.72 1.39c-.05 0 .02.1.07.05-.05-.05-.07-.05-.07-.05m.76-1.98c.22.05 1.61.45 1.51-.02-.14-.45-1.63.02-1.51.02m-2.35.47c.1-.03.25 0 .37-.07-.07-.05-.5-.05-.52.05 0-.01.1.02.15.02m2.35.82c-.1-.05-.12-.1-.2-.1l.1-.1c-.07-.05-.72 0-.47.1-.12.08-.2.08-.32.08-.1.19 1.04.19.89.02m-.34.62v.03c0 .15.57.05.59-.05-.25.02-.35-.11-.59.02m.66-1.09c-.07-.03-.37-.08-.37.07.12 0 .37.1.45 0 0-.05 0-.07-.08-.07m.33.07c.45.25 1.32-.07 1.81-.2 0 0-2.5-.22-2.55-.1.32.03.49.1.74.3m.17-.45c.15-.15-.08 0-.08-.05 0 .05.05.05.05.05m4.47 4.52c-.03-.05-.27-.2-.35-.1 0 0 .48.12.35.1m-5.8-3.33h-.03c-.05 0 0 .06.03 0m-.03.35c.03 0 .07-.05.07-.05-.07-.02-.07 0-.07.05m-.05-.2c-.03.1-1.02-.65-1.02-.5 0 .05.03.15.03.2.05-.02-1.96-.3-1.66.12.12.03.27.03.35.03-.05.05-.22 0-.15.1.18.1.45.05.72.05 0 .15-.62 0-.62.15.27 0 2.41.18 2.08-.05-.02-.1.25 0 .27-.1m3.43-.82c-.05-.15-.47.03-.47.03.12.25.64-.15.47-.03m-4.15.18c-.05 0-.07.05-.2.05 0 0 .42.1.35 0-.02-.05-.07-.05-.15-.05m-1.93-.18h-.07c.07.08.15.03.2-.07-.06.05-.08.05-.13.07m-.57-.02c.22.1.87-.05.94-.3 0 .05-.87.32-.94.3M372.37.57h.07-.07m-2.01 6.27c-.08 0-.15-.05-.22-.05-.13.15.3.05.22.05m.77 5.66c-.05 0 0 .05 0 .05v-.05m-5.28-11.43c.42.27 1.44-.32 1.71 0-.07 0-1.02.3-1.02.17.07.12.22.15.37.2-.2.05-.35.15-.5.2.15 0 .27.05.45.07-.08-.07-.67.12-.52.08 0-.05-.2.2-.22.15.67.25 1.51-.2 2.03-.57.47-.27 1.69-.27 1.93-.65.01-.03-4.31.27-4.23.35m-2.13.86c.05.08.1.08.17.05 0-.15-.25-.1-.17-.05m.89.1h-.2c.05.05.07.1.12.1-.08 0-.62-.1-.65-.05-.05.2 1.09.25.94-.05h-.21m.64-.17c.07-.03.1-.03.22-.03 0-.1-.35 0-.37 0 .03.03.08.03.15.03m-.42-.15c.22-.02-.05.12-.07.15.17 0 .35-.03.52-.12-.15-.1-.3-.05-.45-.03m-.87.62h.07c-.07-.05-.12-.1-.15 0 .01.02.03 0 .08 0m-.2-.64c-.05 0 .27.05.15.05.07 0 .72-.03.72 0-.1-.25-.64-.03-.87-.05m.77-.25c.03.05.1.05.15 0 0-.1-.2 0-.15 0m0 .25" clip-path="url(#SVGID_00000027576634907415431160000017545485088733968563_)"/></svg>