<svg xmlns="http://www.w3.org/2000/svg" width="512" height="512" viewBox="0 0 1304 1304"><circle cx="652" cy="652" r="651" fill="#fff"/><g fill="#165096"><path fill-rule="evenodd" d="m559 497.3-1.054 1.043 1.894.625 10.04 2.539 10.21 7.453 5.254 6.297 5.274 3.614s3.289-2.391.75-5.243l-3.153-3.742-6.133-7.351-3.898-2.239-4.793-1.796-5.402-1.051-5.391-.453-3.594.304zm4.688 40.7s-.586.313-1.211.196-.938-.43-.625-1.094l.781-1.406 1.719-1.094 1.875-.938 2.031-.625 1.875-.937 3.594-1.406 3.125-1.094 2.031-.938 2.344-.625 2.5-.625.781-.781.156-1.25-.156-.781-.937-.781-1.25-.313s-1.25-.156-2.032 0c-.781.156-1.718.781-2.187.781s-2.969 1.563-2.969 1.563l-3.437 1.719-2.657 1.093-2.5.938-2.968.469s-2.032 0-2.5.156c-.469.156-3.086-.313-2.969-.313 0 0-1.641.04-2.5-.625-.274-.207.285-1.679.246-1.406 0 0 1.172-.547 1.719-.469 0 0 1.289-.117 1.562 0l1.25-.156h4.531l2.813-.625s.613-.429.887-1.445l.429-2.149-.468-2.656-.938-1.25-1.562-1.094-2.5-1.562s-1.407-.781-1.719-.781c-.313 0-2.344-.782-2.344-.782l-2.031.157s-5.488.183-6.692 2.082l-1.343.242.437-4.871 1.035-3.418 2.891-.207 4.297.859 2.187.781 2.032 1.094 2.968 1.094 2.032 1.094 2.031.781 3.125-.156 1.406-.469.313-1.25-.625-1.719-1.563-1.875-3.125-2.344-3.281-1.875-1.406-1.093-1.563-.938-1.875-.469-2.5-.468h-2.812s-2.579.156-2.735 0-1.289-.821-1.172-1.25l-.312-2.5-.078-1.629 1.875-1.406 2.031-.942 3.75-.469h10.16l2.656.161 3.75.625 2.657 1.089 4.375 2.036 2.187 1.714 4.063 4.692 3.437 3.902 3.125 4.375 3.906 4.531 3.75 5s.938.981 1.563 1.875c.273.391.586 2.114.469 2.5l-.313 2.661s-1.094 1.472-3.047 1.746l-3.437.039h-9.844c-.469 0-3.437.312-4.219.468l-2.812.625-2.813 1.25-2.343.938-3.907 1.406-4.218 1.406-4.258 1.211"/><path d="M872.2 900.6c2.254-2.903 2.637-10.75 29.69-12.78 6.171 0 9.246 7.942 4.785 8.059-1.973.059-3.723-.156-3.723-.156-5.73.156-4.316 3.371-4.316 3.371s1.992 4.922 10.8 4.246c.774-.066 4.18-.168 5.02-.391 12.36-3.269 3.059-12.34 3.059-12.34-2.715-3.093-10-5.015-10-5.015l-3.047-.676-5.059-.488-9.262 1.164c-14.77 3.086-20.73 2-20.73 2l2.785 13M854.1 861.4l6.484 2.981s12.85 9.687 27.46 7.382c.762-.128 26.67-2.5 37.3 8.907 0-2.422.214-7.09-.286-8.133-3.757-7.922-20.88-7.844-20.88-7.844-19.13 4.727-32.89-1.808-32.89-1.808s-10.8-8.094-11.57-8.485c-.77-.383-8.348-2.844-8.348-2.844l2.723 9.844"/><path fill-rule="evenodd" d="m936 873.5-9.336-14.79c-4.707-5.403-17.36-5.782-17.36-5.782l-7.715-.39s-11.95 1.074-13.11 1.152c-12.62.891-26.77-4.617-26.77-4.617l-4.629-1.543s-1.543-5.949-1.543-6.731c0-.761.383-6.164.383-6.164 2.41 8.555 10.8 8.098 10.8 8.098 2.656.73 3.855-.383 3.855-.383l13.66.774 19.67-.774s8.211.742 8.985.774c15.5.625 20.33 17.13 20.33 17.13l2.773 13.25"/><path d="m936.3 824.5-5.793-7.703-5.008-4.25-5.402-3.86-5.399-3.086-5.012-3.086-6.562-3.464-9.258-5.02-8.094-4.629-6.945-5.398-5.566-3.469-3.075-3.469-.39-6.941.769-8.652 2.317-6.551 1.543-5.793 1.16-6.172.93-5.781-.383-4.25-.547-5.391-1.16-5.789 4.492-3.125 2.996 5.059 1.164 4.238.379 5.008-.379 5.019-.391 6.555-1.164 5.398-1.921 6.172-1.926 4.629-1.543 5.18-.938 5.789.938 5.008 5.011 3.859 6.563 1.926 9.637 4.246 8.488 2.695 6.934 2.703 6.179 3.86 5.391 3.855 5.402 3.86 6.172 5.402 5.789 6.551-1.16 3.476-4.238 5.391"/><path d="M946.1 801.5c-4.465-8.469-18.52-9.262-18.52-9.262-1.363-.367-2.312-1.922-2.312-1.922s.332-.996 1.543-1.164c6.027-.828 18.51 4.77 18.51 4.77l1.16 2.949-.379 4.629M885 727.5s8 7.297 9.258 12.73c-.516 1.503-8.485 21.6-8.485 21.6-3.007 11.85-.441 17.25 7.969 15.54l46.02 2.746-4.239-12.72c-.449.332-2.683 2.683-6.093 2.359-46.1 9.106-34.79-9.851-34.79-9.851.339 3.156 6.562-17.36 6.562-17.36 1.953-5.273-3.859-12.34-3.859-12.34-.379-1.597-12.23-14.81-12.23-14.81l-5.515 3.242s4.343 6.816 5.398 8.875"/><path d="M906.8 763.2c4.433-5.937 7.383-10.18 8.867-12.72 5.879-12.96-9.637-19.29-9.637-19.29-2.082-1.355-9.258-1.152-9.258-1.152l-8.105-4.629c.926 1.164-3.848-3.855-3.848-3.855s19.87 1.582 25.08 3.574c15.49 10.77 18.05 20.7 6.934 31.52l-3.859 7.489-3.075 9.574-6.699-.258 3.602-10.25M912.4 841.9v-3.086l1.933-9.648 1.153-6.934.39-2.707v-1.922l1.926 1.543 1.16 3.086.762 3.074v2.317l-.379 2.312-1.543 4.25s-2.043 2.196-.773 8.489c.136.652 1.164 2.859 1.164 2.859l-2.707.383s-1.543-.774-1.922-1.543c-.391-.774-1.164-1.699-1.164-2.473"/><path fill-rule="evenodd" d="m903.1 846.3-1.922-1.542-1.934-2.86-.773-1.933v-1.922l.773-2.317.77-3.855 1.164-4.629.379-5.402-.77-3.86-2.695-4.629-3.086-2.691-3.859-3.481-5.781-3.086-6.563-3.085-3.633-1.922-5.781-3.086-7.332-5.403-3.859-3.855-2.696-4.246-1.543-5.395-.39-5.789 1.164-4.629 1.922-4.785 1.933-4.25 1.543-3.465.383-7.715.391-2.707-1.164-5.398-.77-3.469-.773-2.312s-1.895-6.375-.743-7.532c1.164-1.16 7.032-2.285 6.368-2.273-4.2-.559 7.921 1.145 5.566 2.859.723 1.172.383 5.012.383 5.012v4.629l-1.164 5.02-1.153 4.238-1.152 5.019-1.16 3.86-1.543 4.234-1.152 3.86-.774 3.25-1.543 5.785-.39 5.398 1.543 5.789 2.707 4.621 3.464 3.477 4.239 1.926 6.34 3.472 6.55 2.696s3.477 1.543 4.629 2.316c1.164.77 7.715 3.477 7.715 3.477l3.086 2.695 3.477 4.25 2.695 3.465.769 4.629-.378 8.093-1.543 7.336v6.551l.773 4.024-.773 2.316-1.934-.774"/><path d="M827.8 734.9v3.86l-.774 9.636-7.32 22.54c-1.504 8.079-.734 14.38 2.313 18.9l6.554 11.57 2.313 4.238s5.449 17.04-1.922 21.21c-11.18 12.6-14.66-1.922-14.66-1.922l-5.403-10.41-3.464-11.57c-.684-2.918-6.954-11.19-6.954-11.19l-3.242-3.86-3.086-2.695-4.238-5.02-3.477-2.695-2.312-1.543s-2.316-1.152-3.086-1.152c-.773 0-3.086.769-3.086.769s-1.926 1.926-1.543 2.696c.391.773 1.543 3.476 1.543 3.476l2.703 1.535 5.403 2.703 4.238 3.469 5.008 6.172 3.644 5.399 4.238 10.8 2.313 8.11 3.469 7.324 5.156 8.387c5.359 6.629 16 2.519 16.77 2.519.774 0 4.301-2.812 4.301-2.812s3.485 1.023 4.258-.52c.781-1.543 1.523-10.28 1.523-10.28l.391-6.555-.391-4.629c.215-2.683-2.695-10.41-2.695-10.41l-8.867-15.05c-4.387-9.961 0-20.82 0-20.82l5.781-14.82 1.934-5.782 2.312-10.03v-2.703c-2.07-5.344-7.715-2.695-8.484-2.312-.774.386-1.164 3.472-1.164 3.472"/><path fill-rule="evenodd" d="m837.8 833.2-1.164 3.859-1.531 3.086-1.934 2.312-2.316 2.473-4.238 3.477c-11.18 5.781-18.91 1.543-18.91 1.543.5.488-6.172-4.629-6.172-4.629l-14.81-21.77-5.781-8.863-9.258-10.41c-13.2-10.03-19.67 2.312-19.67 2.312l-1.934 3.086 7.332-16.97c9.934 1.269 21.59 9.257 21.59 9.257l23.31 35.48 6.164 7.488c9.062 2.715 13.11-2.09 13.11-2.09s1.613-1.472 3.086-3.086c1.406-1.535 5.402-2.312 5.402-2.312s2.313-1.926 3.086-2.317c.77-.382 4.629-1.925 4.629-1.925"/><path d="m807 726.9.118 5.586c2.441 2.793 1.714 4.739 1.714 4.739.375.031-2.312 2.695-2.312 2.695l-3.856 4.246-3.468 6.176-2.313 5.777-.773 5.403c-.352 8.371 4.961 19.36 4.961 19.36l6.965 10.7c4.968 9.551 3.066 18.35 3.066 18.35l-1.496 6.914 3.859 7.703 1.387 2.5s.926-4.043 1.309-4.805c.39-.781 1.074-15.93 1.074-15.93.547-5.457-1.848-13-1.848-13-10.43-15.3-12.34-22.37-12.34-22.37-2.336-8.367-1.492-12.85 1.164-15.97l5.399-7.336 3.086-3.86 3.469-3.086s1.16-1.152 2.312-2.695c1.164-1.543 2.316-3.086 2.316-3.086l.77-2.312s-.379-3.086-2.313-3.86c-1.925-.769-3.859-2.312-3.859-2.312l-4.433-2.078-3.954 2.554"/><path fill-rule="evenodd" d="M803.1 865.5c.313 0-2.527-.547-2.527-.547l-4.758.172c-5.332-2.149-9.375-.313-9.375-.313l-9.687 7.5-5.625 4.688-3.75 4.062c-3.016 3.32-5.477 1.621-5.477 1.621l-6.711-4.746 2.188-.937 4.394-.25 10.09-6.821 9.578-9.179 2.188-1.875c.168-10.57-7.5-7.813-7.5-7.813l-1.875 1.563-1.875 3.125s-1.875 1.25-3.125.312c-1.258-.937-1.563-2.812-1.563-2.812s1.446-4.188 5.266-6.512c4.363-1.633 7.859-1.613 7.859-1.613l-.312-2.5c-2.508-6.141-11.84-6.864-11.84-6.864-14.2.586-13.47 9.051-13.47 9.051l-1.199 3.906-4.973-14.73 6.485.203s7.754-2.723 8.379-2.723 2.226-.515 7.57-.41c5.516.481 13.42 10.32 13.42 10.32l6.258 14.06c.519 1.738 2.18 2.813 2.18 2.813l6.257 3.75s3.223 3.5 3.535 3.5"/><path d="M839.5 854.5c9.715-23.14 14.12-22.56 10.4-50.96.41-1.082-15.32-20.94-15.32-20.94-1.379-1.969-1.243-8.75-1.243-8.75 1.203-8.282 6.868-16.25 6.868-16.25 1.863-1.661 3.75-8.125 3.75-8.125l1.57-11.56v-2.5l7.012-2.652s-1.641 26.62-4.512 28.9c-6.18 11.21-6.805 19.86-1.875 25.94l6.562 8.75c1.016.918 3.75.937 3.75.937l10.62 8.438 12.49 11.25 8.132 9.062c5.508 9.375 3.528 18.05 3.528 18.05-1.399.308-3.965-.5-3.965-.5l-.195-7.863c-.274-4.969-5.305-10-5.305-10l-10.11-10.31-12.08-9.375-1.875-.625-.312 2.813 1.25 2.187 3.117 3.75 16.24 22.6 4.063 7.078-10.91-.496-.637-4.184c-.84-9.156-12.19-20-12.19-20l-.937 5.313-1.258 14.06 1.57 7.188s.442 10.39.129 9.765c-.312-.625-18.34-.996-18.34-.996"/><path d="m807.7 732.6 3.77 3.222c52.73 3.469 65.13-10.65 65.13-10.65 4.461-2.734 9.988-11.17 9.988-11.17l5.801-2.336-.633-7.5-6.191 2.461-5.676.969-3.75-.625-1.258 6.57c-2.004 8.41-46.24 16.25-46.24 16.25l-6.875-.312h-5.945l-4.368 1.25-3.75 1.875"/><path d="M813.4 727.9s.313-3.75.618-4.383c.32-.617 1.875-2.492 1.875-2.492 24.16.156 58.76-12.2 58.76-12.2 5-.535 4.993-1.875 4.993-1.875 4.433-6.738 1.023-7.844 1.023-7.844l-7.59 2.54c-25.59 13.84-63.52 15.07-63.52 15.07l-1.476 3.36.305 4.375 5.007 3.445M809.3 714.8c-.754-2.813 2.813-2.813 2.813-2.813 17.75-.246 48.75-11.25 49.38-11.56.625-.313 10.62-4.375 10.62-4.375 3.816-3.106 7.91-1.738 7.91-1.738l-.41-7.012-1.875-5s-1.594-2.598-1.594-1.973-6.844 9.16-6.844 9.16c-8.449 9.114-40.31 15-40.31 15l-6.243.938h-9.375c-4.929-.02-5.105-7.238-5.105-7.238l-4.59 4.738 1.875 7.812 3.75 4.063"/><path fill-rule="evenodd" d="M878.1 682.6c-.527-5.274-9.922-2.227-9.922-2.227-16.54 11.9-44.3 17.03-44.3 17.03-14.38-1.171-16.49 3.946-16.49 3.946-5.488-.586-6.867-3.75-6.867-3.75s-1.57-11.88-1.57-12.5c0-.625-1.555-2.813-1.555-2.813l3.808 1.172 6.809 7.324c22.93 1.133 32.19-11.62 32.19-11.62 12.42-4.636 16.52-6.086 20.01-10.31 1.602-1.946 3.125-1.563 3.75-1.875.618-.313 12.15-.488 12.15-.488l1.992 16.11"/><path fill-rule="evenodd" d="M707.1 652.6s7.207-5.477 7.82-6.25c.527-.672 2.492-2.813 3.125-3.438.625-.625 3.75-2.812 3.75-2.812 1.777.304 8.437 0 8.437 0 .09.148 1.106 1.945 2.696 3.117 1.543 1.125 3.867 3.758 3.867 3.758l4.055 2.812s4.07 2.813 4.687 2.813c.633 0 5.32 1.562 5.32 1.562l4.055 1.563 4.07 2.5 5.625 1.875 4.368 2.187 2.507 1.867 2.5 1.875 6.653 5.227 3.906 2.574 3.594 2.387c2.39 4.988 13.04 7.312 13.04 7.312l-2.813-4.687-1.562-4.375-.313-5.313s-.625-3.437-.625-4.062-.937-2.805-.937-2.805l-4.688-3.125-3.972-2.48-7.91-1.582-3.43-1.875-5.867-3.153s-5.071-1.847-5.703-1.847h-4.368l-4.375-1.563c-10.77-5.406-17.81-13.44-17.81-13.44l-3.75-3.75-3.125-.938-3.75-.312-5.313.312s-2.156.063-13.12 7.5c-3.445 3.125-8.132.938-8.132.938.097-.711 1.57 6.25 1.57 6.25l3.437 6.25 2.493 3.125"/><path d="M840.9 679.7c-.207-1.98-5.012-3.589-5.012-3.589l-10.75.496-8.75-.938-4.683-1.562-3.442-1.563-2.808-1.875-2.817-1.875-6.25-5.312-3.75-.938-4.058-2.187-3.215-3.836 5.398.398s6.25.313 6.875.313 5.942.312 5.942.312 4.683 1.25 5.308 1.25 4.375 1.25 4.375 1.25l5.317 2.813 7.5 3.437c7.969 4.696 13.75-.937 13.75-.937l3.75.625c2.676 9.648 14.06 7.187 14.06 7.187-1.082 1.504-16.73 6.531-16.73 6.531M761.8 478.2l-3.133-1.25-3.75-2.188-2.492-1.875-3.438-.625-3.445-.625-3.75-2.187-5.305-3.438-2.793-4.043-2.832-4.707-4.375-7.187-2.507-6.563-.938-3.437v-2.188l1.258-.625c1.906.125 4.367 1.563 4.367 1.563 3.359 1.34 7.5 5.312 7.5 5.312l3.75 3.125 3.133 1.563 6.875 2.5 4.055 1.25 10.31 2.5c6.113 1.633 11.25 4.375 11.25 4.375 10.24 7.09 11.57 15 11.57 15l1.555 7.187.633 6.875-.313 5.313-.625 7.5.625 4.062 1.555 4.688.938 3.125c.195 2.234.195 3.594 0 4.062-1.262.125-3.43-1.25-3.43-1.25-1.297-.976-2.813-3.75-2.813-3.75l-1.875-3.125-.937-4.687-.32-7.188-.618-5.937v-8.438c.969-8.175-5.312-16.88-5.312-16.88l-4.063-3.437-5.312-2.5-4.063-1.563-8.437-1.875-7.82-1.25-7.5-3.437-3.43-2.5c-4.219-.508-2.5 3.437-2.5 3.437l1.562 3.75 2.493 3.438c6.003 3.972 8.757 4.062 8.757 4.062s9.993.313 10.93.625c.938.313 3.445 1.25 3.445 1.25l3.118 1.563 2.812 2.187 2.508 3.438.305 2.812c-1.895 3.965-7.18 2.188-7.18 2.188M805.7 621.2c-1.551 2.325.567 4.004 3.75 4.692-.047.398 5.93 1.558 5.93 1.558 1.582.071 3.125-1.875 2.82-2.808-.32-.942-1.875-1.875-1.875-1.875-4.668-4.067-10.62-1.567-10.62-1.567M663.7 546.7c-1.102.274-2.813-1.25-2.813-1.25-1.875-2.773-.632-5.937-.632-5.937.203-.43 1.308-1.621 1.875-1.875.632-.274 2.195-.938 2.812-.938 3.445-.605 5.086-.183 7.82.938.578.137 3.125 1.562 3.125 1.562l3.118 2.5c1.687 1.7 2.519 2.95 2.507 3.75 0 0 .422 8.77-.632 9.688-3.34 4.433-6.985 7.148-10.93 8.125l-14.38 3.437-4.063 1.563-2.187 2.812-2.684 6.399s-2.433-14.48-3.058-14.8c-.625-.313-1.758-8.789-1.758-8.789l9.687 7.812c14.86.071 22.5-7.5 22.5-7.5l.938-4.062c-.086-2.246-.184-3.496-.313-3.75 0 0-1.941-3.25-7.187-1.563-1.406 1.082-3.75 1.875-3.75 1.875"/><path d="M595.4 377.6c2.343-2 13.66-7.086 13.66-7.086-.032-.305 14.17-4.551 14.17-4.551s7.628-2.199 9.621-2.531c28.15-4.368 49.79-6.145 64.89-5.332 29.31-.137 54.11 6.843 54.11 6.843 14.47 3.11 44.57 14.68 44.57 14.68 5.848 2.234 25.57 12.66 35.94 28.85.77 1.211 21.76 34.96 21.76 34.96 6.309 13.16 14.28 42.44 14.28 42.44l3.945 16.78 5.097 18.72c7.579 28.62 9.11 44.57 9.11 44.57l1.543 13.16 2.59 23.63.925 12.34 2.532 19.74c.508 2.25-6.075 23.28-6.075 23.28l-7.589 10.12-7.129 2.019v-4.05l8.144-10.62c.852-.137 5.567-10.12 5.567-11.13 0-1.016-1.524-41-1.524-41l-1.015-21.8-1.387-13.66c.402-1.594-2.149-17.72-2.149-17.72.059-.957-3.543-10.64-3.543-10.64l-3.585-12.65-3.536-12.19-3.738-14.9-2.277-13.61c-.301-4.863-8.164-27.67-8.164-27.67-10.24-23.52-30.36-48.62-30.36-48.62l-12.65-11.64c-69.41-42.29-149.7-33.41-152.4-33.41 0 0-15.88 1.887-31.42 4.563-14.47 3.445-22.82 7.566-22.82 7.566-3.742 2.278-9.57 3.059-9.57 3.059-2.824-.164-1.515-2.531-1.515-2.531"/><path d="M718 388.7c1.433.637 4.133 2.161 8.097 4.551 16.41 10.43 29.59 16.88 42.54 20.96 1.015.508 25.36 10.74 31.39 24.6 5.684 8.262 8.094 16.23 8.094 16.23-.137-1.457 3.547 11.64 3.547 11.64l4.551 23.79 3.035 8.602c3.371 10.12 10.64 16.2 10.64 16.2l19.23 16.73s11.09 12.24 10.46 22.66c.633 2.114-1.836 3.118-2.871-.386-1.203-4.082-1.535-4.907-2.832-7.348-2.344-4.394-11.85-12.9-11.85-12.9l-11.13-8.094-11.13-8.645-7.586-6.574c-4.68-8.476-3.547-15.69-3.547-15.69l.508-11.13c1.289-5.566-4.559-24.3-4.559-24.3l-2.187-5.195-1.856-4.414-3.547-7.625c-.527-.434-2.508-2.082-7.117-6.582-11.06-12.95-31.38-18.74-31.38-18.74-8.769-1.824-15.26-3.797-21.77-7.078-20.1-12.2-18.7-21.3-18.7-21.3"/><path d="M599.8 398.3c5.157-2.808 22.91-7.019 22.91-7.019 1.153-.633 17.24-3.039 18.25-3.039 1.008 0 29.86-4.043 29.86-4.043 12.58-.899 22.27 3.039 22.27 3.039 3.575.996 6.575 3.535 6.575 3.535l16.2 12.66 16.23 11.13s9.61 5.059 11.13 5.566c1.516.508 21.76 7.598 23.79 8.094 2.024.512 17.21 7.602 17.21 7.602s21.42 12.25 19.6 20.74c-9.016-9.524-25.17-16.2-25.17-16.2-44.11-14.72-50.61-21.75-50.61-21.75l-12.18-8.11-10.63-7.078c-13.98-11.17-33.45-12.03-33.45-12.03-19.25-1.668-52.45 4.719-52.45 4.719-13.24 3.66-19.53 2.183-19.53 2.183"/><path fill-rule="evenodd" d="M745.2 380.4c-1.023.039 6.953.614 13.65 2.293 2.031.508 11.96 4.16 13.16 4.563.957.312 18 7.707 20.25 9.101 10.32 5.907 17.3 10.76 21.29 14.17 11.54 9.895 14.34 16.44 14.34 16.44 8.133 10.82 14.36 21.12 18.56 36.24l3.547 12.15 2.02 10.62 3.039 17.72 2.527 10.62-10.12-14.17-3.691-4.797-2.883-4.812-3.035-9.109c-10.15-44.99-18.22-54.7-18.22-54.7-10.25-15.51-25.85-24.3-25.85-24.3-3.204-2.167-22.77-11.13-22.77-11.13s-16.3-6.067-18.21-6.582c-11.66-3.125-7.59-4.317-7.59-4.317"/><path d="M642.4 436.8c10.14 5.703 16.7 6.582 16.7 6.582 8.047.027 17.2 2.058 17.2 2.058s6.079 3.036 7.094 6.075c1.016 3.039 1.016 4.55 1.016 4.55l.496 9.618s2.031 11.13 3.547 11.64c1.523.512 1.414 3.332 22.77 8.606.985.246 11.02 4.472 12.19 6.074 2.886 2.258 4.746 4.277 5.566 6.074 7.52 12.34 2.527 39 2.527 39l1.016 5.566c9.57 8.274 14.68 7.09 14.68 7.09v-3.039c0-1.015-2.539-6.07-2.539-6.07l-9.614-43.06c-4.136-8.078-22.3-15.69-22.3-15.69-10.62-2.668-11.13-10.62-11.13-10.62l-2.539-10.62-3.028-11.14c-2.7-14.1-15.2-13.7-15.2-13.7h-13.16l-6.57-.496-5.567-1.016-8.605-3.546s-9.571-2.11-4.559 6.078"/><path d="m643.9 457.8 6.145 1.289 4.551 1.511c4.16.176 5.058-1.003 5.058-1.003l9.109-3.04h3.047l6.067 1.008c11.86 2.801 12.66 10.12 12.66 10.12l-7.09-2.019-6.582-.508-10.12-.508-7.09.508c-9.953 3.32-15.75-7.363-15.75-7.363"/><g fill-rule="evenodd"><path d="M640.4 416.6c8.817 11.89 18.15 4.868 17.72 5.579l14.68-3.039c3.965-.282 7.766-.465 8.879-.333 6.648.461 9.316 1.555 10.98 2.063 4.559 1.316 8.184 1.848 14.05 10.92-.097-.852 5.059 9.617 5.059 9.617l4.094 10.66c6.316 24.02 30.36 32.9 30.36 32.9l14.17 4.043 4.558 2.031s5.528 4.226 6.575 7.082c.496 1.344 3.543 7.09 3.543 7.09l3.039 9.097 4.55 12.7 4.051 3.546 5.059 4.043 4.59 6.075c-1.707 1.457-1.004 5.058-1.004 5.058 0 .574-4.59 1.524-4.59 1.524l-4.895 1.347c-2.293-.976-3.711-4.89-3.711-4.89l-1.523-7.59-6.57-21.81c-5-13-14.2-15.4-14.2-15.4l-12.65-6.075-17.21-9.617c-12.54-5.918-19.27-27.83-19.27-27.83-5.274-22.01-15.19-26.86-15.19-26.86-5.234-5.434-31.21-2.367-31.21-2.367l-10.14 3.351c1.133-.519-15.83 5.598-15.83 5.598s.508-8.098.508-9.113c0-1.016 1.515-9.622 1.515-9.622"/><path d="M747.8 507.7c9.844 12.03 5.574 34.5 5.574 34.5l2.032 10.62 6.574 9.617s11.64 13.16 12.15 14.17c13.5 15.33 10.26 29.91 5.067 41.53l-5.067 6.075-1.008 2.023-.507 13.16 2.023 3.543c3.379 2.094 15.18 2.531 15.18 2.531s15.21 0 16.23.508c1.008.496 7.082-1.015 5.566-2.031-1.523-1.008-4.05-2.024-4.05-2.024s-7.082-5.566-7.59-7.089c-.508-1.512-1.512-10.12-1.512-11.13 0-1.008-1.523-4.555-1.523-4.555-.41-.828-2.871-4.695-4.59.512.308-.989-1.016 5.562-1.016 5.562l-1.515 6.074-5.567 2.532c-.703.136-1.551-.032-2.527-.508-1.028-.762-.508-4.563-.508-4.563.711-1.824 4.043-6.57 4.043-6.57l2.031-6.582 2.528-9.109 1.007-10.66-2.531-9.114-3.035-6.074-12.14-16.19-5.566-7.586-5.574-7.602-2.532-9.109-.554-22.16c.312-6.719-6.524-14.32-6.524-14.32-7.695-3.023-4.57 4.004-4.57 4.004M592 388.5l15.07-6.601 18.69-4.328c45.07-6.844 76.96-4.051 76.96-4.051 26.44 4.656 43.57 13.16 43.57 13.16s44.8 18.89 61.78 38.96c5.098 6.914 7.086 13.16 7.086 13.16l12.65 39c3.926 12.11 8.105 17.21 8.105 17.21 2.871 3.84 6.575 5.566 6.575 5.566l4.558 2.031c4.426 1.731 8.098 7.079 8.098 7.079 5.234 7.226 5.058 13.7 5.058 13.7 1.036.711 0 7.089 0 7.089l-4.55-5.566-8.946-9.016c-19.88-11.04-25.47-40.12-25.47-40.12l-3.547-15.18-5.067-15.19c-5.48-28.34-79.99-58.23-79.99-58.23-31.35-15.11-70.9-10.12-70.9-10.12-4.774.093-17.2 2.019-17.2 2.019l-32.43 5.567-12.6 2.754-7.5 1.093"/></g><path d="M854.1 677.3c1.942-.113 3.125-2.137 3.543-6.07l1.524-7.094 1.007-9.109.508-7.586 1.016-8.098v-6.582c-5.332-13.1-23.28-20.75-23.28-20.75l-9.622-3.035-7.089-4.043-5.567-5.098-5.566-3.546-7.078-2.02c-4.16-.266-1.524-2.527-1.524-2.527s2.528-1.02 4.559-1.02c2.023 0 7.59.512 9.101 1.02 1.524.496 6.582 1.511 6.582 1.511s4.532 4.539 7.598 6.075c12.1 6.043 38.96 25.85 38.96 25.85 3.215 1.992 3.039 8.606 3.039 8.606v6.582l-.508 7.082-1.515 5.054-2.528 11.13-1.015 7.09s-1.516 2.531-2.024 3.547c-.508 1.008-3.035 3.535-3.035 3.535l-4.055 1.016-3.035-1.516"/><path fill-rule="evenodd" d="m871.3 622.7-6.574-11.14s-6.883-13.63-20.26-20.08c-7.754-2.215-9.414-5.535-9.414-5.535-.176-.207-.187-8.828-.187-8.828 1.574-13.34-10.12-24.8-10.12-24.8s-14.17-7.59-15.18-8.097c-1.016-.504-14.47-4.547-15.73-5.059-.938-.391-10.12-7.598-10.12-7.598l-2.019-5.562 4.043 2.527 13.19 6.582 30.3 14.95c6.922 3.743 10.69 8.333 10.69 8.333 1.36 2.753 4.055 15.18 4.055 15.18.488 4.609 5.059 7.59 5.059 7.59 2.214 2.012 20.75 19.24 20.75 19.24 3.371 4.715 1.515 22.3 1.515 22.3"/><path d="M648 423.9c-2.219-3.52-1.496-7.864-1.496-7.864 4.992-8.761 44.53-4.152 48.59-2.031l17.72 9.617 18.76 10.12c32.42 16.65 54.9 21.85 54.9 21.85 10.87 6.524 9.375 33.36 9.375 33.36l.539 14.68.508 8.606 1.015 6.582c.547 4.441 4.551 7.121 4.551 7.121l39.98 23.28s10.94 6.938 12.15 24.81c-.02 6.734-3.039 10.11-3.039 10.11.246 1.469 0 4.563 0 4.563s.508 1.004 4.055 3.039c3.543 2.019 7.078 4.043 7.078 4.043l-.508-4.551-2.02-7.094-.507-16.19.839-12.04c.372-3.074-1.476-4.714-4.882-6.699l-5.071-2.527-20.23-10.12-7.09-4.055-10.12-6.07-6.574-7.121-4.051-7.598-2.531-9.102-1.016-8.613v-7.082l-.457-9.312-.547-9.418c1.785-14.53-29.39-22.77-29.39-22.77l-22.27-7.625-9.113-4.055-15.68-11.13c-.117-.774-15.73-10.62-15.73-10.62-20.72-11.14-43.57-9.805-43.57-9.805l-9.778.801c-8.094 1.277-12.44 5.457-12.44 5.457l-.508 4.05s.832 3.872 1.25 4.797c.605 1.348 2.297 3.809 2.297 3.809l5 2.7M646.6 470.2c.887.637 27.19 21.72 27.19 21.72 9.929 9.148 25.16 11.88 25.16 11.88 3.211.75 12.34.308 12.34.308 9.062 2.344 8.594 13.91 8.594 13.91 2.781 16.9-5.11 17.1-5.11 17.1-2.234 1.336-4.043 2.024-4.043 2.024s-4.051 2.527-.508 3.035c3.536.508 16.74-1.008 16.74-1.008l-4.559-31.92c-3.457-12.51-20.96-11.1-20.96-11.1-3.906.781-9.219.156-9.219.156-11.72-2.973-19.06-10.16-19.06-10.16l-25.15-18.91c-7.278-2.656-1.407 2.969-1.407 2.969M846.8 671.3l1.191-8.098 2.949-10.65c.313-1.406-.937-4.145-.937-4.145 0-.468-7.032-9.218-7.032-9.218-.859-1.637-.312-7.579-.312-7.579.137-3.101-1.633-9.441-5.293-19.02-4.316-6.988-11.64-9.109-11.64-9.109s-4.05-1.59-4.05-1.043c-.828.269-.84 1.09-.028 2.437 10.31 10.41 12.18 22.4 12.18 22.4.481 1.843.363 1.465.871 2.468.508 1.016 1.656 4.622 1.656 4.622l2.036 5.058 5.566 11.13c2.227 2.937-3.039 10.12-3.039 10.12l.508 7.09 5.383 3.547"/><path d="m846 673.8-.508-7.597s-.899-7.071-2.02-8.094c-17.66-16.14-38.47-15.69-38.47-15.69l-3.543 1.008 1.7 2.527c41.56 9.141 36.8 19.84 36.8 19.84 1.816 2.168.984 3.442.984 3.442l2.531 3.035 2.528 1.523M787.8 640.9s13.48-1.574 14.61-1.899c20.42-5.761 33-1.636 33-1.636 2.472.078 4.816 3.668 4.816 3.668l1.406-1.637-.148-3.051c-.321-4.766-9.461-5.855-9.461-5.855l-22.34 1.168-9.699 1.652-15.22 4.055 3.039 3.535M765.8 512.1l.196 6.211s-1.043 19.32-1.016 17.25c-.125-.383.441 10.68 4.562 14.17 2.442 1.508 7.704 6.125 7.704 6.125 3.136 2.234 8.281 11.49 8.281 11.49s4.597 15.11 3.75 16.29l-1.512 8.11 2.313 4.578s8.351-1.555 9.355-1.555c1.016 0 4.055-1.004 4.055-1.004l.508-2.527s-2.54-1.527-3.547-1.02c-1.016.508-2.528 1.02-2.528 1.02l-1.523-6.582c-.07-2.824-5.781-13.9-5.781-13.9l-1.34-3.82-3.035-9.617-6.075-8.606c-4.433-1.699-7.589-8.093-7.589-8.093-1.805-3.02-2.528-22.81-2.528-22.81-.39-2.058-4.25-5.703-4.25-5.703"/><path d="M824.7 600.4c1.765 1.184-2.024-6.074-2.024-6.074l2.024-16.71c-1.348-18.18-19.74-29.85-19.74-29.85l-9.648-3.04-5.566.508c-5.809 4.824-12.66 2.532-12.66 2.532s-13.66 3.039-16.19 2.019c-2.527-1.016-5.066-4.051-5.066-4.051s-1.497-4.453-2.024-3.039c-1.094 2.942-9.109 0-9.109 0l-14.68-6.062-1.512.5-11.13 1.519-.507 2.024 2.527 1.015s24.28 7.735 27.85 21.64c.402 1.555 6.054 1.641 7.07 1.641s12.15-4.051 12.15-4.051 3.946-10.33 12.66-5.063c1.289.782 12.65-.508 12.65-.508l10.16 1.528c12.06 3.34 14.17 24.28 14.17 24.28 1.016 2.207-2.527 7.09-2.527 7.09s5.859 10.77 6.582 11.64c2.937 3.504 4.551.508 4.551.508M642.9 522l3.543-2.527 3.039-3.035s3.535-4.055 5.058-4.055h5.059s8.992 1.648 10.52 2.156c1.515.5 9.218 3.41 9.218 3.41l10.13 2.032 4.043.507 6.582 3.575 3.543 4.55 1.516 3.036.508 4.054 3.035 2.528 6.613 1.527-3.066-9.113-5.071-11.68-3.535-3.035-4.051-2.024c-23.96-4.289-25.3-9.113-25.3-9.113l-2.528-2.527-10.13-9.114-13.45-13.82c-.793-1.199-7.402-5.187-7.402-5.187-2.258.609-.91 2.812-.91 2.812l11.64 9.609s8.098 12.15 10.12 13.67c2.023 1.516 3.039 4.551 3.039 4.551-1.563 2.766-4.551 0-4.551 0l-3.039-4.051-16.84-16.01c-6.125-3.55-1.875 2.852-1.875 2.852.723 1.215 11.13 13.66 11.13 13.66l1.004 5.566-2.528 2.032-3.547-1.524-2.019 1.016-3.039 6.074 3.547 7.586"/><path fill-rule="evenodd" d="m768 649-1.516-4.05-.507-4.551c.832-3.821 6.582-1.524 6.582-1.524s3.039-.507 4.043-.507c1.015 0 .851-13.01.851-13.01l-7.422-.149-6.582.508s-3.605-4.578-1.523-4.559c13.63.11 14.17-19.26 14.17-19.26-.692-4.531-3.535-2.024-3.535-2.024-3.25 15.62-14.68 17.74-14.68 17.74l-6.074.507-4.055-1.003-2.024-2.032c14.83-7.883 17.21-15.22 17.21-15.22 1.993-1.726 1.524-11.64 1.524-11.64l-1.016-5.059c-1.797-1.75-3.547.496-3.547.496v4.055c.09 1.738-.078 3.594-.508 5.566-10.08 20.79-19.23 13.7-19.23 13.7l-2.024-2.02c17.1-2.297 14.17-36.48 14.17-36.48l-.507-4.559-2.024-2.024-2.344.266c1.868 4.563 2.344 15.42 2.344 15.42.617-.23-4.695 22.27-18.73 19.24-.985-.214-5.567-1.011-5.059-2.031.508-1.004 0-3.023 1.516-3.531 1.523-.512 4.558-2.031 5.566-2.531 1.016-.508 5.566-5.071 5.566-5.071l2.032-4.55.508-6.075-.508-2.527c-.528-.613-2.032 0-2.032 0l-1.007 2.019c-1.551 14.19-13.67 15.7-13.67 15.7l-5.567 2.527h-3.066l-1.523-1.015c12.38-8.79 13.2-18.22 13.2-18.22l.5-5.571c.007-2.539-.168-3.718-.5-3.535-.196-.429-2.032 0-2.032 0 .032-.371-1.511 2.024-1.511 2.024l-2.532 8.093c-3.347 9.204-12.19 13.16-12.19 13.16-4.754.253-2.527-3.543-2.527-3.543 11.21-11.36 10.16-15.19 10.16-15.19l-.539-8.601c-1.16-1.243-2.539 0-2.539 0l-1.512 4.55c-1.387 9.285-9.113 16.71-11.13 16.71-2.023 0-3.547 1.008-3.547 1.008l-1.004-2.527 3.536-2.024 3.035-3.547 2.531-4.546c.418-2.954.586-4.973.508-6.079.652-2.46.996-3.804 1.015-4.05-.898-.86-2.531-.508-2.531-.508-.43-.164-1.015 2.527-1.015 2.527-1.836 5.5-4.032 9.211-6.582 11.14 0 0-3.954-.379-2.528-1.524 3.672-2.922 3.543-12.15 3.543-12.15l-.508-12.65 1.524-3.035 8.097-2.031 11.67 1.016 3.047-2.532-5.066-4.05-10.66-1.516-5.059 2.023-4.054.508-5.567-.508-2.019-1.007-11.13-7.086c-2.403-.434-3.918-.434-4.563 0 0 0-2.265 2.293 1.016 3.543 1.426.691 27.28 10.39 14.68 37.45-.313 1.219-3.039 3.035-3.039 3.035-.977.809-8.094 1.008-8.094 1.008-.735.086-5.567-2.024-5.567-2.024l-4.562-4.55v-4.563l-13.15 2.031-1.008 3.039.5 2.024s4.07 3.894 4.55 4.043c1.551.679 3.543 5.574 3.543 5.574.129-.039 0 9.102 0 9.102l-.839 28.36c.05 2.629 4.816 11.38 4.816 11.38-.012.094 4.305-.52 4.305-.52-2.715-5.144-4.578-12.27-4.227-16.91l2.02-15.22s2.031-6.074 2.031-7.089c0-1.004 1.125-8.497 1.125-8.497s.391-1.621 1.902-1.621c1.524 0 2.539.508 2.539.508.735.379 1.008 1.516 1.008 1.516.145.152-.512 11.13-.512 11.13-6.578 23.91-3.054 36.04-3.054 36.04.363-.129 6.691-.742 6.691-.742-3.867-6.625-4.133-13.49-4.133-13.49l1.516-7.597 2.019-7.625 1.524-11.64 1.008-2.019h2.031l.508 5.058v12.66l-1.563 9.524c-.468 8.433 1.629 14.76 1.629 14.76l4.309-.372-1.34-5.664-.508-7.586s.508-6.046.508-7.089 2.531-10.16 2.531-10.16l2.02-3.039c4.133-1.328 4.551 3.547 4.551 3.547l-4.043 20.78s-.918 9.579-.508 10.63c.539 1.367 4.054 7.082 4.054 7.082.77 1.16 2.02-1.008 2.02-1.008-.059.903 1.516-22.78 1.516-22.78s1.855-3.015 5.136-1.301c5.575.254 7.012-5.82 7.012-5.82s7.371-7.168 7.625 6.621c.051 2.485-4.012 7.793-4.012 7.793-4.062 4.531 3.125 2.348 3.125 2.348l5.438-2.043s4.054-1.016 5.07-1.016c1.004 0 2.02 0 4.043 1.016 2.027 1.016 3.035 3.035 3.035 3.035l-3.535 7.082s-.828 5.969 0 7.598c1.887 3.703 5.566 0 5.566 0s-1.015-4.055-.507-5.071c.507-1.003 1.515-3.535 1.515-3.535 1.407-2.383 7.09-2.031 7.09-2.031 10.25 4.648 12.15 21.26 12.15 21.26 1.074 2.297-2.539 3.039-2.539 3.039l2.031 4.051 15.69 5.566-5.9-8.5"/><path d="m858.7 518.7 4.473 7.793 6.582 21.26 4.043 53.13 1.015 21.3v17.21c-1.972 8.914-5.058 11.64-5.058 11.64-.196-.039-2.032-10.12-2.032-10.12v-22.78l-1.004-26.34c.157-46.76-7.902-63.76-7.902-63.76l-.117-9.324M783.2 531l8.527 24.86 6.699 14.12 6.063 15.19c1.836 2.168 0 6.074 0 6.074l4.054 3.035 11.13 5.059s3.543.507 2.527-2.024c-1.003-2.539-7.585-10.12-10.62-12.65-3.035-2.531-3.543-2.531-4.05-4.055-.508-1.515-7.082-23.28-7.082-23.28l-5.098-15.68-6.582-9.113-5.566-1.523M617.2 481c-1.523 2.981 5.266 8.93 5.266 8.93.996 1.383 10.01 12.55 10.01 12.55s8.508 7.5 7.258 21.79c1.484 12.98-3.496 14.94-5.938 21.89-.461 7.778 3.477 22.96 3.477 22.96 1.972 4.629 7.09 33.16 7.09 33.16s1.98 27.84 3.3 27.84c1.883 2.192 13.77 2.629 35.65 1.321 15.1 7.05 13.94 24.91 15.27 24.91 1.32 0 5.195-1.809 5.195-1.809l2.747-6.602c1.472-2.773 2.253-7.011 2.253-7.011-5.859-1.778-8.542-4.883-8.542-4.883-2.461-3.547-1.309-8.711-1.309-8.711.801-5.02-8.813-4.191-8.813-4.191-33.26 3.71-35.34.468-35.34.468-2.664-3.367-7.997-47.78-7.997-47.78l-5.722-23.74c-.078-7.446 5.254-17.2 5.254-17.2 2.09-9.161.117-22.61.117-22.61-3.477-9.851-13.3-20.38-13.3-20.38-6.406-6.394-5.586-9.875-5.586-9.875 12.05-25.5 14.48-42.68 14.48-42.68l1.672-14.25c-2.012-17.86-7.266-19.81-7.266-19.81-2.402-1.984-10.57-4.621-10.57-4.621-8.438-2.813-20.14-3.391-23.22-3.301-3.653-.32-12.55 1.316-12.55 1.316-3.965.676-8.574 2.649-8.574 2.649s-5.969 2.871-.489 3.152c1.317.071 16.99-2.5 20.95-1.836 3.957.657 13.47.774 28.22 7.032 12.28 3.703 4.239 33.91 4.239 33.91l-17.3 37.3"/><path fill-rule="evenodd" d="m660.3 799.5-25.7 32.3-34.75 51.88-20.52 41.33-26.45 94.1h12.49c8.75-76.25 52.06-147.7 52.06-147.7l38.92-52.1 46.12-57.82 38.26-36.68s43.75-33.11 47.75-36.47c2.949-6.465 7.207 10.33 7.207 10.33 4.172 8.125 6.133 11.49 6.133 11.49 6.633 21.11-.488 20.13-.488 20.13-14.72 1.981-21.25 12.86-21.25 12.86-10.2 16-4.649 34.86-4.649 34.86-20.87-2.238-26.88 13.55-26.88 13.55-12.44 23.58-2.558 46.65-2.558 46.65s3.078 15.37 2.414 26.62c-.078 1.477-.657 16.91 5.711 20.43 5.714 4.172 10.55 5.051 10.55 5.051s3.503 7.019 8.789 7.691c10.36 1.32 17.17-12.3 17.83-12.97.664-.652 12.3-11.2 12.3-11.2s6.594-4.394 15.6-2.195c1.094.223 12.52-.656 12.52-.656 12.08-.664 16.25-12.52 16.25-12.52s.879 28.99 20.69 34.92c-1.973 2.637-1.688 7.891-1.688 7.891-3.839 16.28 8.067 24.18 8.067 24.18 25.69 15.64 51.61.664 51.61.664 15.47-8.808 16.26-30.54 16.26-30.54 1.875-17.64-.227-27.9-.227-27.9-14.28-22.66.442-38.48.442-38.48 4.89-4.414 8.144-13 9.785-25.76 1.902-21.04-8.859-28.54-8.859-28.54-7.1-5.8-5-12.4-5-12.4l2.199-25.57c.223-12.75-5.273-23.29-5.273-23.29-1.758-5.926-11.42-10.32-11.42-10.32-7.032-1.535-17.35-1.32-17.35-1.32-21.97 1.32-20.5 5.434-23.05 4.477-1.64-.625 3.086-5.469 1.739-12.86-6.543-11.94-2.981-19.1-2.981-19.1l11.28-15.93c15.74-27.93 13.09-61.84 13.09-61.84-4.062-59.06-15.31-90.47-15.31-90.47-16.25-52.51-40.94-99.23-40.94-99.23-31.88-51.41-100.6-60.78-100.6-60.78-33.75-6.875-92.03-4.375-92.03-4.375-30.16 2.343-47.19 9.843-47.19 9.843s-26.57 10.3-37.71 27.97c-.351.559-3.808 9.27-2.644 9.902 3.074 1.692 2.644 3.965 2.644 3.965.891 2.84-2.644 6.477-2.644 6.477l-8.281 12.85s-4.192 6.797-8.575 21.79c.098.183-5.597 14.34-5.597 14.34-2.41 9.883-5.125 19.11-5.125 19.11-.793 1.148-10.82 21.94-10.82 21.94-2.96 15.57-8.457 21.72-8.457 21.72l-39.92 61.97c-4.7 8.71-5.032 17.04-3.965 20.16 1.406 4.14 2.441 6.015 6.406 6.015s12.27.84 15 .781c7.187-.156 7.578 5.625 7.578 5.625s.203 18.38.391 19.84c.234 1.875.547 11.02.547 11.02s-.469 5.855 7.187 8.828c.234.387 1.406 1.797-1.281 6.012-.594 1.332-2.469 11.85-2.156 12.74.39 1.094.175 2.574 2.89 3.75 8.36 3.594 8.281 9.598 8.281 9.598 1.563 3.527-7.031 18.26-7.031 18.26-4.844 7.688-2.734 30.37-2.5 31.82 2.969 18.44 23.98 23.18 23.98 23.18 21.25.938 33.22.293 33.22.293l24.85-2.336c7.422-.703 7.629 12.31 7.629 12.31l19.38 85.5c6.551-9.656 6.133-9.277 6.133-9.277l-3.633-19.11-10.86-49.92c-4.297-23.59-4.023-16.86-4.023-19.49 0-2.644 8.476-3.504 8.476-3.504 57.77-9.941 63.62-27.97 66.25-31.76 9.364-16.37 24.61-64.07 24.61-64.07s4.969-6.121 9.453-7.422c5.937-1.714 11.56 1.719 11.56 1.719 2.579 1.485 8.829 8.672 8.829 8.672 3.984 2.895 12.89 5.625 12.89 5.625 3.75.859 16.95 6.484 18.44 6.953 1.258.395 5.476 3.789 6.718 4.77 1.141.894 14.69 4.39 14.69 4.39-2.676-5.546-1.27-6.433-12.27-14.78-1.672-1.258-29.3-10.31-29.3-10.31-7.109-4.067-11.14-8.11-12.58-9.297-9.765-8.125-14.92-9.453-14.92-9.453-10-1.719-22.42 14.45-22.42 14.45l-4.14 8.72c1.113 10.8-17.99 51.57-17.99 51.57-2.813 5.317-4.094 14.91-18.71 17.73-12.28 4.676-19.78 6.726-34.4 9.355-24.55 5.555-41.81 5.555-41.81 5.555l-29.72.59c-51.32 1.402-32.38-39.41-32.38-39.41l4.629-11.16c1.199-3.243 3.476-1.661 6.113-1.543 7.735.332 1.27-6.5 1.27-6.5-2.942-3.098-6.946-10.34-.657-16.07.157-1.64-3.113-1.086-3.113-1.086-6.601 4.328-9.687.559-9.687.559-3.985-6.067 1.757-9.699 1.757-9.699s3.262-3.629 15.51-.332c2.852.773 9.91-.008 9.91-.008 5.04-.91 4.934-4.91 4.934-4.91-6.574-4.731-4.98-4.36-8.156-5.825-1.66-.757-3.055 8.789-13.72 1.289-5.625-5.386-6.562-4.785-7.227-4.785-6.125 0-6.906 1.809-8.593-4.961l-.547-24.53.242-7.226 11.02 1.418c6.66 2.343 10.3 1.425 10.3 1.425-2.343.899 11.31-1.211 6.446-12.91-3.008 7.235-17.58 3.125-17.58 3.125-10.54-7.629-25.18-3.918-25.18-3.918-18.68 2.707-10.18-11.36-10.18-11.36l17.85-28.27s19.45-27.16 29.9-44.88c2.332-19.09 5.691-26.43 5.691-26.43 7.668-8.508 9.817-15.88 10.01-16.52 10.45-34.48 12.13-41.28 12.13-41.28 1.434-5.84 8.496-17.2 16.51-18.64-6.844-7.019-5.176-21.68-.254-25.36 3.781-4.961 14.09-11.99 14.09-11.99 2.5-1.875 30.94-15.31 63.12-16.41 31.08-1.067 57.5.468 79.53 3.125 19.55 2.363 71.72 25.16 71.72 25.16 15.87 8.039 28.28 26.25 28.28 26.25 10 10.62 31.09 59.84 31.09 59.84s15.43 52.51 16.09 52.51c.653 0 11.47 35.87 13.37 95.47-2.363 39.62-21.49 50.78-21.49 50.94-2.969 5.937-2.883 9.914-2.883 9.914-.398 6.336.657 10.57.657 10.57 4.832 10.29 3.679 15.2 3.679 15.2.618 1.367-3.679 9.992-3.679 9.992s-1.524 6.512 10.91 4.473c2.609-.422 11.12-2.324 11.12-2.324 18.89-2.332 32.58-1.067 36.78 21.96 0 0-5.304 20.09-3.293 37.63 16.96 18.98 14.22 35.85 14.22 36.52 0 .664.156 2.324-6.543 10.78-.41.52-10.78 17.84-10.78 17.84-4.297 18.19 1.965 29.95 1.965 29.95 6.191 10.12 3.093 31.78 3.093 31.78-7.597 39.22-78.04 33.18-58.21-7.032-16.73-11.54-17.85-21.66-17.85-21.66l-8.731-25.12-14.61 14.43c-5.625 7.031-19.12 7.031-19.12 7.031l-19.6-1.543s1.602 9.695-8.242 15.32c-13.63 17.72-20.38 6.465-20.38 6.465-14.9-9.844-12.65-45.69-12.65-45.69-12.94-15.74-1.086-35.62-1.086-35.62 3.613-22.3 27.79-21.74 27.79-21.74s-.086-9.914 0-14.76c.156-8.106 5.32-19.07 5.32-19.07 7.836-9.071 15.19-10.3 15.19-10.3 13.43-.656 10.15-13.75 10.15-13.75l-3.351-15.29-6.004-22.2c-1.438-4.129-8.547-13.24-8.547-13.24l-7.949 5.188-44.4 34.01c-35.14 27.25-81.1 85.94-81.1 85.94"/><path d="m495 858.3 1.465-2.188 1.531-2.812 1.789-1.531 1.532-1.535 1.054-3.016c.442-.238-2.586.973-2.586.973l-2.812 1.281-1.789 1.277-2.071 1.313-1.316 7.554 3.2-1.4zl1.465-2.188 1.531-2.812 1.789-1.531 1.532-1.535 1.054-3.016c.442-.238-2.586.973-2.586.973l-2.812 1.281-1.789 1.277-2.071 1.313-1.316 7.554 3.2-1.4m20-218.5-3.418.578-2.566 1.711-4.571 2.566-3.418 2.285-3.429 2.274-3.418 1.718-1.426 1.426-2.86 2.278-2.277 1.718s-2.41.985-2.969 1.082c-1.875.317-1.882-2.222-1.316-2.508.574-.292 3.145-2.285 3.145-2.285l3.71-2.285 3.133-2.566 2.571-1.992 3.425-2.289 3.703-1.993 2.852-2.285 1.719-1.14 1.707-1.145 1.711-1.426 3.133.86 1.718 1.144-.9 2.2zl-3.418.578-2.566 1.711-4.571 2.566-3.418 2.285-3.429 2.274-3.418 1.718-1.426 1.426-2.86 2.278-2.277 1.718s-2.41.985-2.969 1.082c-1.875.317-1.882-2.222-1.316-2.508.574-.292 3.145-2.285 3.145-2.285l3.71-2.285 3.133-2.566 2.571-1.992 3.425-2.289 3.703-1.993 2.852-2.285 1.719-1.14 1.707-1.145 1.711-1.426 3.133.86 1.718 1.144-.9 2.2-3.418.578-2.566 1.711-4.571 2.566-3.418 2.285-3.429 2.274-3.418 1.718-1.426 1.426-2.86 2.278-2.277 1.718s-2.285.852-2.851.852c-.575 0-2-.285-2-.285s0-1.707.566-1.993c.574-.292 3.145-2.285 3.145-2.285l3.71-2.285 3.133-2.566 2.571-1.992 3.425-2.289 3.703-1.993 2.852-2.285 1.719-1.14 1.707-1.145 1.711-1.426 3.133.86 1.718 1.144-.9 2.2zl-3.418.578-2.566 1.711-4.571 2.566-3.418 2.285-3.429 2.274-3.418 1.718-1.426 1.426-2.86 2.278-2.277 1.718s-2.285.852-2.851.852c-.575 0-2-.285-2-.285s0-1.707.566-1.993c.574-.292 3.145-2.285 3.145-2.285l3.71-2.285 3.133-2.566 2.571-1.992 3.425-2.289 3.703-1.993 2.852-2.285 1.719-1.14 1.707-1.145 1.711-1.426 3.133.86 1.718 1.144-.9 2.2m-4.3-37.5-4.571 2.969-4.843 2.566-4.571 2.286-2.851 2.289-3.993 2.273-3.136 1.719-2.567 1.14-2.851 1.133s-1.145-.281-.86-.847c.293-.578 1.141-2 1.141-2s3.43-1.426 3.711-1.996c.285-.575 3.996-2 4.277-2.567.285-.566 2.852-2.851 2.852-2.851s2.004-1.145 3.43-1.711c1.425-.575 4.277-2.86 4.277-2.86s3.426-1.543 3.711-2.121c.281-.562.566-1.133 1.426-1.988.847-.863 2.285-1.711 2.285-1.711s1.707-.574 2.273.281c.578.86 1.426 1.711 1.426 1.711l-.5 2.3zl-4.571 2.969-4.843 2.566-4.571 2.286-2.851 2.289-3.993 2.273-3.136 1.719-2.567 1.14-2.851 1.133s-1.145-.281-.86-.847c.293-.578 1.141-2 1.141-2s3.43-1.426 3.711-1.996c.285-.575 3.996-2 4.277-2.567.285-.566 2.852-2.851 2.852-2.851s2.004-1.145 3.43-1.711c1.425-.575 4.277-2.86 4.277-2.86s3.426-1.543 3.711-2.121c.281-.562.566-1.133 1.426-1.988.847-.863 2.285-1.711 2.285-1.711s1.707-.574 2.273.281c.578.86 1.426 1.711 1.426 1.711l-.5 2.3m0 25.8-2.852 1.719-3.992 1.992-5.703 3.43-4.289 2.852-3.7 2.57s-.031.367-2.003 1.14a592.854 592.854 0 0 0-4.004 1.575c-.743.269-1.7-1.575-1.133-2.153.578-.562 2.851-2.566 2.851-2.566l3.711-1.711 4.856-3.992 3.711-2.852 3.699-2.004 3.144-2.273 2.571-1.426 1.992-.859 1.707-2.285.293-3.704-2.566-.292-2.571.863-4.851 3.426-6.563 3.996-3.418 2.554-2.57 2.004s-2.566 1.426-3.426 1.426c-.851 0-2.285.242-2.851.281-1.946.157-1.993-1.425-1.993-1.425.508-1.422 2.852-2.567 2.852-2.567l8.836-4.562 4.277-3.426 3.547-2.403 3.594-2.441 3.418-.859 2.566-.567 1.426.282 2.285 4.843v4.571l-2.851 4.843zl-2.852 1.719-3.992 1.992-5.703 3.43-4.289 2.852-3.7 2.57s-.031.367-2.003 1.14a592.854 592.854 0 0 0-4.004 1.575c-.743.269-1.7-1.575-1.133-2.153.578-.562 2.851-2.566 2.851-2.566l3.711-1.711 4.856-3.992 3.711-2.852 3.699-2.004 3.144-2.273 2.571-1.426 1.992-.859 1.707-2.285.293-3.704-2.566-.292-2.571.863-4.851 3.426-6.563 3.996-3.418 2.554-2.57 2.004s-2.566 1.426-3.426 1.426c-.851 0-2.285.242-2.851.281-1.946.157-1.993-1.425-1.993-1.425.508-1.422 2.852-2.567 2.852-2.567l8.836-4.562 4.277-3.426 3.547-2.403 3.594-2.441 3.418-.859 2.566-.567 1.426.282 2.285 4.843v4.571l-2.851 4.843m8.6 37.6-3.133-1.141h-3.71l-2.571 1.141-2.566 1.437-3.996 2.274-3.985 2.289-5.429 3.418-2.852 1.714-1.426.852-3.418 1.141-.293-.848 1.145-1.145 2.285-1.714 2.285-1.711 5.418-4.278 4.844-3.136 4.57-2.567 3.137-2.004 2.566-1.707 2.989-1.894 2.715.468 1.718 4.278-.293 3.133zl-3.133-1.141h-3.71l-2.571 1.141-2.566 1.437-3.996 2.274-3.985 2.289-5.429 3.418-2.852 1.714-1.426.852-3.418 1.141-.293-.848 1.145-1.145 2.285-1.714 2.285-1.711 5.418-4.278 4.844-3.136 4.57-2.567 3.137-2.004 2.566-1.707 2.989-1.894 2.715.468 1.718 4.278-.293 3.133m-23.8 139c-18.91 4.09-23.59 3.515-23.59 3.515l-59.34 2.625c-9.355-.293-14.22-2.05-14.22-2.05l14.22-1.747c18.11.418 75.63-7.375 75.63-7.375l24.25-3.339-16.95 8.371zc-18.91 4.09-23.59 3.515-23.59 3.515l-59.34 2.625c-9.355-.293-14.22-2.05-14.22-2.05l14.22-1.747c18.11.418 75.63-7.375 75.63-7.375l24.25-3.339-16.95 8.371m-62.9-178 .344 2.383 1.023 1.875 1.7 1.367 1.367.508 2.383.34 2.558-.848 1.524-1.711.683-1.191-.344-1.187s.864-.508-1.187-.508c-2.043 0-3.234.164-3.234.164l-2.383-.344-1.192-.672-1.367-.344h-1.531l-.344.168zl.344 2.383 1.023 1.875 1.7 1.367 1.367.508 2.383.34 2.558-.848 1.524-1.711.683-1.191-.344-1.187s.864-.508-1.187-.508c-2.043 0-3.234.164-3.234.164l-2.383-.344-1.192-.672-1.367-.344h-1.531l-.344.168m-2.1-6.3 4.199.008s2.219-.164 2.726-.164h4.422c.852 0 4.258-1.368 4.602-1.368.34 0 6.992-4.289 6.992-4.289l1.434-1.914-.926-2.683-1.543-3.711s-2.383-1.707-2.895-1.875c-.515-.176-2.722-1.504-2.722-1.504l-2.383-1.875-3.242-2.039-2.723-2.043-1.867-1.535-3.242-1.024-1.192-.168-.847-.34-1.7.34-1.367.852.254 1.277.684 1.027 1.699.684 1.875.852 2.215.847 2.726 1.367 2.547 1.016 2.051 1.668 1.699 2.121 1.035 2.324-3.183 1.309-2.235-.176-1.32-1.914-1.191-.851-1.367-1.532-1.532-.859-1.191-.344-2.383.18-2.004 1.023-.215 1.856.344 1.883.254 3.078s1.797.168 2.137.168c.343 0 2.383.332 2.383.332l2.207-.512s1.027-.508 1.367-.508c.343 0 1.906-.437 2.414-.437s2.383.34 2.383.34l2.488 1.964-.34 2.207-2.695 1.387h-1.711l-2.723.684-2.207.34-3.691.332-1.348 1.171.848 1.028zl4.199.008s2.219-.164 2.726-.164h4.422c.852 0 4.258-1.368 4.602-1.368.34 0 6.992-4.289 6.992-4.289l1.434-1.914-.926-2.683-1.543-3.711s-2.383-1.707-2.895-1.875c-.515-.176-2.722-1.504-2.722-1.504l-2.383-1.875-3.242-2.039-2.723-2.043-1.867-1.535-3.242-1.024-1.192-.168-.847-.34-1.7.34-1.367.852.254 1.277.684 1.027 1.699.684 1.875.852 2.215.847 2.726 1.367 2.547 1.016 2.051 1.668 1.699 2.121 1.035 2.324-3.183 1.309-2.235-.176-1.32-1.914-1.191-.851-1.367-1.532-1.532-.859-1.191-.344-2.383.18-2.004 1.023-.215 1.856.344 1.883.254 3.078s1.797.168 2.137.168c.343 0 2.383.332 2.383.332l2.207-.512s1.027-.508 1.367-.508c.343 0 1.906-.437 2.414-.437s2.383.34 2.383.34l2.488 1.964-.34 2.207-2.695 1.387h-1.711l-2.723.684-2.207.34-3.691.332-1.348 1.171.848 1.028m-22.1-8.1c4.219 0 6.719-.313 10.01-.781.156-1.883.996-13.61.996-13.61v-6.062l1.016-5.047 3.027-3.535s2.02-2.024 4.043-2.024c2.02 0 6.063.496 6.063.496l7.082.508 5.047 2.531 9.269 3.653 6.18 8.679 1.652 2.922 4.317 1.778c1.003.312 4.902 1.75 4.902 1.75-.988-1.157-10.4-16.5-11.81-18.19 0 0-2.695-2.176-3.769-1.902-3.699-1.797-6.121-1.914-6.121-1.914l-8.086-3.535-5.559-3.028-5.887-1.035h-5.793l-5.683.371-6.055.723-1.719 2.5 2.032 5.945 1.093 4.387v11.11l-1.718 6.414-4.532 6.887zc4.219 0 6.719-.313 10.01-.781.156-1.883.996-13.61.996-13.61v-6.062l1.016-5.047 3.027-3.535s2.02-2.024 4.043-2.024c2.02 0 6.063.496 6.063.496l7.082.508 5.047 2.531 9.269 3.653 6.18 8.679 1.652 2.922 4.317 1.778c1.003.312 4.902 1.75 4.902 1.75-.988-1.157-10.4-16.5-11.81-18.19 0 0-2.695-2.176-3.769-1.902-3.699-1.797-6.121-1.914-6.121-1.914l-8.086-3.535-5.559-3.028-5.887-1.035h-5.793l-5.683.371-6.055.723-1.719 2.5 2.032 5.945 1.093 4.387v11.11l-1.718 6.414-4.532 6.887m57.1-214.2a136.104 136.104 0 0 0-8.985-1.726c-.789.105 10.72-5.11 31.56 1.375 3.976 1.242 3.906-4.129 3.906-4.129-.652-4.024-10.65-9.141-10.06-8.418-12.37-3.582-24.42-1.914-24.42-1.914l16.14-18.91s3.918-.688 4.387-.688 8.621-1.64 15.32.246c6.418 1.817 14.57 15.78 14.57 15.78l4.114 5.696c7.734 12.38 5.625-.207 5.625-.207s-.703-3.313-.938-3.781c-3.254-10.94-8.183-17.15-11.37-21.78-2.461-3.57-11.93-4.226-11.93-4.226-19.2 2.109 9.27-6.329 17.61-2.161.464.239 4.257 6.157 4.257 6.157l12.07 31.47c1.394 2.762 3.23 5.203 5.144 7.266l-14.16-.051c-.32-.015-.633-.097-.937-.144-3.426-.684-7.161-.481-10.4.129l-41.52.015zm94.44 0a41.27 41.27 0 0 0 2.215-2.476c2.453-2.832 3.078-3.789 3.078-3.789 5.429-.793 12.77-.774 7.422 6.265h-12.72zm-84.61-22.05c1.102.286 3.68.129 3.68.129 16.8 1.219 18 11.48 18 11.48.457 2.273 8.192 10.35 7.977-4.133-3.7-14.7-20.4-14.4-20.4-14.4-6.817.047-9.969 3.101-9.969 3.101s-1.465 2.778.644 3.828m31.8 22.1c-3.906.703-7.101 1.992-8.195 2.988-.567 0-13.37 7.18-18.6 13.9 0 0-12.99 14.58-13.69 21.43 0 0-.195 2.539 1.973 3.386 0 0 1.648.305 1.992.176 1.414-1.414 8.613-16.58 13.63-20.51 0 0 18.61-15.63 31.62-9.312l10.09 7.183s3.105 1.848 5.089 1.954 6.543.351 11.7-1.289c0 0 6.98-1.043 1.082-4.176l-3.387-1.418-3.106-1.121c-2.929-.813-7.199-4.043-12.55-10.2 0 0-3.543-2.148-6.309-2.917l14.16-.071c4.512 4.934 9.434 7.696 9.766 7.696.441 0 8.066 2.335 17.67-7.684l12.72-.012c-.305.403-.637.813-1.016 1.25l-10.43 5.266s-8.007 4.969-8.515 9.941c.664 6.36 9.511.156 9.511.156 3.055 8.196-4.316 12.39-4.316 12.39-2.93-1.656-14.43-.242-14.43-.242-8.964 2.285-15.86 10.18-15.86 10.18-4.453 5.585-8.926 9.015-12.51 11.09l-11.54-.039c10.92-2.605 10.22-4.851 11.22-7.183 0 0 .938-2.661-2.316-1.743-.711.207-12.07 2.129-13.02 2.129-.949 0-2.609.239-2.609.239s7.785-5.547 27.71-6.797c3.425-5.598 2.8-4.668-.957-6.938 0 0-8.028-2.207-12.08-.945-8.14 1.711-14.2 7.812-14.2 7.812l-8.527 7.098-9.071 5.434s1.368-4.082 1.551-4.368c5.293-7.785 20.78-16.44 20.78-16.44l8.997-3.555c5.605-6.457-7.813-5.207-7.813-5.207-15.73-.007-26.98 17.75-26.98 17.75s-4.766 11.58-5.438 12.3l-.207.441-12.46-.031c-1.113-1.797-1.777-3.418-1.777-3.484 0-.235-3.074-2.129-3.543-2.129-.481 0-4.27-.945-4.27-.945-15.42-1.094-21.32 4.136-24.53 6.589l-12.14-.031c1.778-3.152 3.211-4.91 3.301-4.91 5.262-4.219 8.524-7.266 13.73-8.516 0 0 8.183-3.269 29.11-1.894 4.141-3.184-.234-5.918-.234-5.918s-11.13-3.574-33.38-.945c-3.672.933-5.301-2.082-5.301-2.082-.246-.723 9.395-13.68 9.863-13.68.477 0 21.46-5.324 42.02-.617 11.35 2.586 6.66-7.227 5.547-7.508-.907-1.488-6.153-2.934-11.04-3.996l41.52.066zm16.22 50c5.07-3.941 9.336-7.265 9.336-7.265 6.64-3.602 20.6-.946 20.6-.946.098.157-1.183 3.977-2.617 8.145l-27.32.066zm-94.59-26.84c9.094-.339 12.99-1.132 12.99-1.132 6.575-.696 16.09 1.687 16.09 1.687 2.981 1.059 9.035 1.137 9.035 1.137 6.211-1.25 2.254-6.781 2.254-6.781-8.308-5.875-21.45-5.079-21.45-5.079-16.23-.488-21.18 7.903-21.18 7.903-.593.476-.593 2.551 2.266 2.265m75.66 554.6-9.035-.183 1.301-34.93c.183-18.63-5.86-33.86-5.86-33.86l-7.043-17.02-7.051-12.91-6.457-14.08c-3.57-6.601-4.031-14.25-4.031-14.25l.293-4.383c.19-11.09-8.48-10.53-8.48-10.53l-36.55-7.598-18.96-1.648c-41.61.469-35.34-46.88-35.34-46.88.918-6.379 5.281-11.34 5.281-11.34l4.699-8.215c2.95-5.769-3.449-11.45-3.449-11.45l-4.969-2.59c-3.468-1.609-1.562-10.6-1.562-10.6l1.133-3.352 1.406-5.156c.273-2.844-2.539-5.586-2.539-5.586-2.305-3.789 0-12.32 0-12.32l.586-10.74-.586-5.286s-.371-5.972-.371-5.386-.227-.571-.227-.571l-6.629.254c-20.64.567-19.92-19.89-19.92-19.89.926-8.094 10.75-18.12 10.75-18.12l9.942-17.32 11.74-17.21 13-17.58c4.375-5.672 3.164-17.6 3.164-17.6l-.136-8.25c-.137-10.46 3.515-13.5 3.515-13.5l6.465-10.57s5.965-14.97 6.27-15.47c4.089-6.797 6.796-35.98 4.753-38.79 2.024.969-15.32-8-16.33-11.99-4.441-27.45 2.95-41.52 2.95-41.52l18.2-15.84 13.56-16.26c17-25.9 33.16-26.54 33.16-26.54 4.48-11.11 19.02-22.33 19.02-22.33s15.05-10.21 42.43-6.079c8.086.208 10.64 7.864 10.64 7.864s3.204 23.89 14.85 29.09c14.96 9.961 23.41-.965 23.41-.965 6.063-2.766 8.309 4.304.098 6.965-2.305.449-8.906 1.25-8.906 1.25-22.06 4.578-28.3-13.11-28.3-13.11l-6.504-16.41c-2.434-10.05-15.27-9.394-15.27-9.394l-17.6 1.172c-4.004-.086-7.727.695-11.14 2.351-4.969 3.457-9.98 11.74-9.98 11.74l-2.938 4.106-4.687 5.469-4.297 2.925-5.274 2.344s-11.89 4.902-24.28 21.21c-3.664 6.867-8.34 13.44-13.29 19.89l-11.74 8.797c-13.61 10.71-10.45 25.16-10.45 25.16l.468 12.59c.371 3.711 6.829 7.312 15.27 10.56 3.445 1.711 4.109 5.871 4.109 5.871l.586 10.57-1.757 19.36-3.524 14.09-5.285 14.26-5.106 9.738c-3.73 6.98-2.519 13.22-2.519 13.22v13.44c.281 8.82-11.17 17.75-11.17 17.75l-9.551 12.18-11.74 20.14-4.113 5.286c-7.02 7.117-16.2 23.58-16.2 23.58.43 5.125-3.75 14.38 12.5 13.75 2.93-.118 13.77-1.192 13.77-1.192 8.855 1.211 15.16 4.981 15.16 4.981 4.27 5.925 11.41 4.004 13.52 3.32 3.437-1.121 5.175-1.633 1.855-10.52-.652-1.757-3.027-8.14-3.027-8.14l1.379-1.281s8.484 12.25 9.109 21c-10.31 6.567-15.43 4.575-15.43 4.575l-10.5-4.258-8.125-1.25c-6.921-3.481-2.82-1.25-2.82-1.25 4.375 5.625.734 20.57.734 20.57l-.996 5.469s-.988 3.965 2.879 4.414c2.91.344 4.649.508 5.461.703 1.192.281 2.735 1.523 3.184 2.227 4.433 6.738 6.805 4.57 6.805 4.57s5.683-.281 7.492-.344c1.504-.047 3.718 6.008-.969 6.008-5.488.371-8.645.43-8.645.43-1.48-.02-6.382-3.684-6.382-3.684-9.875-4.258-15.49 22.06-2.422 18.92 3.308 2.852 5.508 13.06 5.508 13.06.019 4.785-10.88 16.78-10.88 16.78s-2.727 5.613-.637 18.15c1.601 15.2 15.03 25.82 40.1 25.82 11.92.469 30.52 1.77 31.1 1.77.586 0 15.66.527 17.02.586 36.11 1.594 79.86-37.7 79.86-37.7l33.32-35.18c14.32-12.47 12.88-.848 12.88-.848 7.746 2.95-11.41 21.92-11.41 21.92 1.465-.879-43.11 29.36-43.11 29.36-17.71 11.44-17.95 18.34-17.95 18.34-1.34 13.4-1.583 13.92-1.583 13.92s-19.84 13.33-23.12 12.5c-2.277-.567 17.31-16.27 17.31-16.27 3.535-7.695-4.93-4.473-6.57-3.855-12.88 8.316-29.72 7.886-29.72 7.886l-.332 9.883c1.242 16.99 7.629 28.94 7.629 28.94l8.808 15.25 5.86 12.32c7.812 14.22 9.98 32.88 9.98 32.88l-.488 47.84m12.7-324.6c-.578-.285-3.711-.864-3.711-.864l-2.285 1.426-4.278 2.863-2.285 1.426-4.562 2.571-2.852 1.707-2.285 2.566-2.285 1.137-3.418 1.14-2.285.86c-.449.605-1.992 0-1.992 0s-.293-1.145.851-1.719c1.141-.566 2.852-1.418 3.711-1.992.859-.567 6.563-5.418 6.563-5.418l7.703-5.703 6.562-3.996s4.563-2.286 5.129-2.286c.574 0 1.719-2.851 1.719-2.851l2.566-.852 4.278 3.418s-.86 2.004-1.141 2.856c-.285.855-1.711 3.14-1.711 3.14s-3.426.852-3.992.571m47 114.3-24.76 4.976-25.11 4.914-32.83 4.949c-6.504 1.016-13.44 0-13.44 0-2.442.481-1.797-.894-1.797-.894.078-1.328 2.695-2.707 3.594-2.707.898 0 4.5-.449 4.5-.449 4.523.195 25.58-3.145 25.58-3.145l24.73-4.504s18.89-4.441 21.14-4.89c2.246-.45 21.08-4.942 21.08-4.942l-2.703 6.692m-45.38 20.3-25.44 5.266-33.68 4.316s-17.94.672-18.45.801c-1.75.43-4.726-.625-4.726-.625-.137-1.379.449-1.516.449-1.516s2.137-.527 2.937-.527c.801 0 19.53-1.609 19.53-1.609l39.5-5.52 26.3-6.14 11.43-2.801-17.85 8.355m-94.6-337.9a8.22 8.22 0 0 1-1.023.774c-8.039 5.41-13.01 16.38-13.01 16.38l-1.563 12.76c2.207 4.961 8.172.449 8.172.449.078 0 1.172-8.234 4.59-12.28 2.297-3.887 8.313-9.101 20.23-12.14 5.411-1.027 7.676-2.011 8.411-1.867 6.289 1.203 2.507 5.918 2.507 5.918-1.179.813-12.78 3.321-12.78 3.321-13.7 2.277-16.19 15.97-16.19 15.97-.469 11.96-6.719 20.71-6.719 20.71-2.492-12.14-9.777-15.72-9.777-15.72-1.864-4.364-2.11-8.653-2.11-8.653.254-11.29 4.172-20.39 7.121-25.63l12.14.008zm46.58 0c-4.805 9.973-9.863 4.387-12.46.063l12.46-.063zm44.49 0c-4.422 2.617-7.48 3.137-7.48 3.137l-22.85 5.93s-.703 1.414-.468 1.648c.234.234 4.757 13.6 22.52 1.902.488-.293 9.25-7.07 16.43-12.63l27.32.015c-1.769 5.063-3.769 10.72-3.769 10.72 3.894-2.898-15.62 10.42-15.62 10.42l-8.418 5.273c-14.02 10.92-29.45 7.981-29.45 7.981-7.414-.07-11.84-4.024-11.84-4.024l-2.61-1.894c12.64 2.051 22.9 2.812 30.15-.969.476 0 20.62-8.902 32.34-23.89-.293-5.757-10.89-1.89-10.89-1.89l-7.098 3.785c-5.656 1.992-23.09 17.25-23.09 17.25-2.8 2.18-6.843.625-6.843.625-6.231-8.094-16.7-9.59-16.7-9.59l-7.566.481c-7.18 2.265-5.93-1.785-5.93-1.785s3.731-5.293 27.08-9.961c5.692-.871 9.989-1.703 13.25-2.493l11.54-.031m124.5 113.4-4.793 1.125-3.086 1.407-5.332 3.085-6.457 3.926-7.578 4.492-8.133 3.934-5.617 3.09-7.293 3.641-4.766 2.246-6.172 2.246-3.937 1.679-3.926 1.121-4.207.286-3.371.285-2.801-.571.84-1.675s1.961-.84 3.367-1.125 8.137-1.68 8.137-1.68l10.38-3.367 8.144-3.938 11.5-6.726 12.06-6.742 6.453-3.368 6.172-3.64s2.812-1.692 3.371-1.965c.566-.281 1.687-1.406 1.961-1.973.285-.554 1.125-3.64 1.125-3.64l1.992 1.406 1.406 2.801.555 3.64m2.206 12h-3.641l-2.558 2.25-3.086 2.8-2.805 1.961-4.207 2.532-5.89 3.371-6.18 3.086-5.891 2.527-7.578 3.359-5.613 2.532-5.606 2.246-2.531.554-1.406-1.394.851-1.965 4.481-1.973 5.617-1.965 10.66-5.332 10.66-5.332 7.86-5.046 5.324-3.086 2.527-1.68 2.531-1.406 3.387-2.532 2.813-.554.273 5.047m1.2 10.3-2.527.559-4.211 2.8-4.227 2.532-4.777 3.648-3.926 1.965-9.257 4.766-7.579 3.117-2.812 1.961-4.207 1.125-2.246-.84 2.246-2.531 3.652-1.711 9.824-5.047 6.172-3.371 10.38-6.453 9.004-5.887 2.531-1.692 1.68 1.407.281 3.652m3.399 12-2.812 1.41-3.645 1.961-3.086 1.679-2.558 1.407-3.36 1.992-3.093 1.125-3.926 1.676-3.086.839-3.371 1.125s-1.395 1.122-1.961 0c-.559-1.125-.559-1.679-.559-1.679s1.125-.84 1.965-1.121c.84-.286 5.047-2.532 5.047-2.532l6.457-3.386 5.332-3.086 4.238-2.246 3.086-1.965 2.801-1.121 2.531 1.121v2.801m-52.8 111.6-3.73 2.531-5 3.445-5.848 2.973-4.308 2.027-3.75 1.555-5.079 1.933-6.835 1.621-9.219.872-6.914.386s-9.883 2.375-.235 3.946c.461.07 5.625-.313 5.625-.313l7.344-.789c7.383-.305 15.78-3.898 16.09-3.898.312 0 10-4.071 10-4.071l16.09-10.62 12.39-11.24c2.5-4.688-16.63 9.637-16.63 9.637m91.4-79.2-2.648 4.062-2.508 4.375-5.93 7.5-7.195 8.598-10.93 13.89-7.031 8.289-4.687 5.625-10.16 11.56-4.375 4.539-9.687 9.524-4.844 4.851-7.812 7.031c-12.22 9.89-15.98 10.17-15.98 10.17-4.492.586-8.769.586-8.769.586s4.91-3.551 5.222-3.551c.313 0 3.75-1.567 3.75-1.567l4.063-2.351 4.687-3.274 5.938-4.531 4.687-4.375 10.62-10.32 6.875-6.719 5.938-6.406 8.281-9.375 8.125-9.219 6.25-7.805 11.41-14.68 11.17-16.37s.957-1.887 1.199-2.075c5.247-4.019 4.34 2.032 4.34 2.032m8.601 9.586-1.875 2.965-5.625 7.343-3.75 5.625-5.469 8.125-4.844 6.086-4.687 5.469-4.688 6.094-5.781 6.406-5.781 6.25-5.156 5.32-5.313 5.317-5.312 5-4.532 4.375-11.22 11.71-7.024.879 8.867-8.528 4.844-4.531 7.969-6.883 4.687-4.367 5.469-4.844 3.281-3.445 2.657-2.969 4.218-4.687 4.532-5.469 3.75-5.156 6.562-8.438 4.063-4.836 6.867-10.47 7.195-12.19 2.5-5 3.75 2.348-.156 2.5m8.602 9.501-3.907 1.723-5.789 9.215-11.25 20.15-18.52 25.98c-6.719 11.41-14.04 14.33-14.04 14.33-4.218.781-15.68 3.703-15.68 3.703l11.84-8.703c7.07-3.692 17.5-16.24 17.5-16.24l8.437-10.48 6.711-9.375 5.157-8.125 6.093-9.832c1.258-.918 5.625-19.22 5.625-19.22l2.664.473 2.188 1.875 1.711 2.027 1.258 2.5m48.1 5.599-2.325 1.378-1.699 2.227-2.215 2.219-1.594 1.797-2.851 2.859-1.805 1.902-1.906 2.219-2.43 2.645-1.691 1.703-.957 1.051-1.485 1.164c-1.726 1.218-2.851.324-2.851.324-.399-1.723 1.379-3.176 1.379-3.176l1.375-2.012 1.906-2.121 1.902-1.902 2.754-2.957 2.325-2.863 1.796-2.012 1.375-1.692 1.801-1.589.215-1.368-.422-1.593s1.477-.418 1.692-.418c.214 0 1.796.207 1.796.207l1.063.32 1.262.313 1.59 1.375m11.4 5-1.16 1.484-1.269 1.484-4.024 3.594-4.23 3.488-4.969 4.129-3.281 2.754-4.133 3.918-4.336 3.809-3.699 3.594-2.649 2.332-2.539 2.328-2.969 2.644-2.011 1.485-1.903.839-2.011-.312-.422-1.484 1.594-1.907 3.699-2.957 3.594-2.863 4.445-4.117 4.551-4.453 4.343-4.543 4.551-4.551 4.649-4.348 4.445-4.539 3.387-4.347 1.593-.313h1.903l1.269.637 1.582 2.215m-29.1 51.9c.976.813.402 1.984.402 1.984l-3.039 4.051-20.43 16.29-4.902 3.957-5.574 4.551-4.551 4.055-3.039 2.527c-.867.703-1.707.703-2.527 0-.039-1.433 2.019-3.039 2.019-3.039.91-.937 7.598-5.562 7.598-5.562l6.574-5.571 6.582-5.054 8.641-6.582 4.55-3.547 3.547-3.543 1.512-1.762c1.582-3.602 2.637-2.754 2.637-2.754m44.9-43.6-4.551 3.543-4.05 3.039-6.075 4.05-8.097 5.571-7.586 6.101-8.106 7.09-9.113 7.09-8.094 5.566-7.121 6.067-5.058 4.558c-2.059.774-4.559 1.016-4.559 1.016-1.094-.148-.781-1.945-.781-1.945 1.504-1.395 2.996-2.43 2.996-2.43l4.875-3.731 6.101-4.042 6.075-4.563 7.089-5.566 5.567-4.547 6.582-5.571 5.566-5.093 7.59-6.582 9.617-9.621 3.547-5.059 3.035-2.023h3.536l2.539 1.515-1.524 5.567M1122 896.8l5.91-12.71 57.56 26.84-10.17 21.83-8.37-3.899-2.58 5.528 17.33 8.086 2.58-5.528-2.99-1.394 25.66-55.02 2.99 1.399 2.51-5.379-17.35-8.086-2.51 5.379 8.38 3.906-10.17 21.82-57.56-26.84 5.93-12.72-5.54-2.578-17.15 36.78 5.54 2.582m35-79.9 1.71-6.882 77.77-11.9 1.03-4.16-62.75-48.28 1.51-6.082-5.91-1.477-5.59 22.4 5.92 1.473 2.23-8.953 15.57 11.86-7.26 29.13-19.25 2.852 1.76-7.039-5.92-1.477-6.7 26.89 5.88 1.636zm92.09 6.301c4.49 1.121 9.09-1.64 10.16-5.968 1.12-4.481-1.64-9.083-6.12-10.2-4.33-1.07-8.93 1.692-10.04 6.172-1.07 4.316 1.69 8.918 6 9.992zm7.07-28.33c4.48 1.125 9.08-1.64 10.16-5.965 1.11-4.472-1.65-9.074-6.13-10.2-4.32-1.074-8.92 1.688-10.04 6.172-1.08 4.316 1.69 8.914 6.01 9.988zm-62.11-25.68 25.14 19.19-31.08 4.656 5.94-23.85m-14-75.7.49-14.01 63.46 2.219-.84 24.07-9.23-.32-.21 6.089 19.12.676.22-6.101-3.31-.11 2.13-60.66 3.28.117.22-5.937-19.12-.676-.22 5.938 9.24.324-.84 24.06-63.46-2.207.48-14.01-6.1-.215-1.41 40.55 6.1.211m-2-96.11-1.72-12.26 62.88-8.836 1.73 12.25 6.53-.918-5.18-36.91-6.54.918 1.72 12.25-62.89 8.84-1.72-12.25-6.04.851 5.19 36.91 6.04-.847m-31-122.7c-1.47 7.239-1.35 13.45.58 19.41 4.23 13.03 16.33 19.84 28.1 16.03 10.2-3.324 13.99-8.711 17.14-24.65.82-3.906 1.79-8.386 2.81-13.23 1.41-6.348 3.05-8.789 7.13-10.12 6.43-2.09 12.09 1.445 14.48 8.816 1.38 4.239 1.51 7.324.21 14.52l-7.85 2.547 1.89 5.801 18.82-6.114-1.89-5.808-3.92 1.277c1.03-5.371.65-10.27-1.03-15.45-4.08-12.55-16.23-19.53-27.53-15.86-9.24 3.008-13.21 9.5-15.63 25.55-2.36 15.16-5.06 20.72-11.02 22.66-6.12 1.992-12.34-2.227-14.89-10.08-1.74-5.332-1.75-10.18-.03-17.68l8.17-2.657-1.89-5.8-19.61 6.367 1.89 5.808 4.07-1.328m-14-45.01-2.24-4.043c-1.76-3.176-1.54-6.875.71-11.32l12.18-24.3c7.01 8.562 17.36 10.55 27.02 5.203 11.69-6.485 13.74-17.42 5.97-31.41l-18.87-34.04-5.77 3.191 6 10.82-55.54 30.79-6-10.82-5.33 2.957 18.06 32.6 5.34-2.961-5.99-10.82 23.94-13.27 3.92 7.066-14.67 28.31c-3.49 6.648-3.42 8.125.1 14.47l5.84 10.53 5.33-2.957zm31.08-74.93 5.59 10.1c4.16 7.5 1.93 14.02-6.15 18.5-7.93 4.402-15.75 2.89-19.59-4.031l-5.68-10.25 25.83-14.32m-89-37.9-4.08-4.532-6.49 5.852-18.77-20.84 21.45-19.31 14.12 15.69-6.12 5.52 4.08 4.531 17.04-15.34-4.21-4.43-5.87 5.31-14.13-15.7 20.46-18.44 18.11 20.11-6.38 5.74 3.98 4.42 13.73-12.36-4.08-4.55-2.46 2.21-34.65-38.48-4.55 4.08 8.29 9.2-47.56 42.82-8.28-9.2-4.54 4.09 39.52 43.88 11.39-10.26m-771.8-78.6-4.277 4.13 6.992 7.24-19.93 19.25-43.77-45.32 8.898-8.6-4.582-4.75-26.82 25.9 4.582 4.75 8.894-8.6 44.12 45.68-8.906 8.59 4.25 4.4 42.12-40.68-11.57-11.99m-82.1 120.6c11.93-17.03 6.926-42.68-10.77-55.07-17.43-12.2-43.11-8.035-55.03 8.997-12.11 17.29-7.383 42.75 10.18 55.05 17.84 12.49 43.52 8.325 55.62-8.972zm-60.22-41.97c7.949-11.35 26.41-12.11 41.54-1.516 15.26 10.68 20.96 28.16 12.91 39.65-7.942 11.34-26.45 11.88-41.71 1.187-15-10.5-20.68-27.97-12.74-39.32m7 135.6c5.614-14.64 2.086-25.7-9.765-30.25-11.56-4.429-21.73 1.379-27.87 15.98 4.316-11.24.828-21.94-8.41-25.49-10.78-4.141-20.9 1.515-25.93 14.61l-14.43 37.57 5.691 2.188 4.445-11.54 59.75 22.93-4.434 11.55 5.696 2.192 15.25-39.73zm-40.21 3.469 4.258-11.09c3.906-10.16 10.78-13.36 20.33-9.687 8.77 3.371 11.23 10.31 7.324 20.48l-4.187 10.94-27.73-10.64zm-31.1-11.94 4.199-10.93c2.891-7.551 8.738-9.895 16.44-6.945 7.852 3.019 11.04 9.894 8.082 17.6l-3.789 9.856-24.94-9.578m36.32 95.37-1.512 12.27-63.03-7.734 1.504-12.28-6.543-.801-3.137 25.54 52.1 33.16-58.52 19.07-3.02 24.56 6.555.801 1.5-12.28 63.04 7.738-1.511 12.28 6.062.742 4.035-32.91-6.054-.738-1.504 12.27-51.41-6.308 61.96-20.15-58.24-37.22 54.68 6.707-1.504 12.28 6.055.742 4.539-37-6.055-.738m-79.93 160 5.188 32.75 6.524-1.036-1.934-12.21 40.72-6.457c13.19-2.09 24.04 5.214 25.98 17.43 1.883 11.9-5.977 21.32-19.34 23.44l-40.89 6.472-1.961-12.38-6.523 1.036 5.859 36.98 6.524-1.031-1.965-12.39 44.3-7.019c15.32-2.422 24.56-16.91 21.79-34.34-2.937-18.58-17.01-29.38-34.61-26.59l-41.21 6.531-1.934-12.22-6.524 1.028m95.06 122.5 5.039 11.3-58.47 26.04-5.039-11.31-5.574 2.492 15.16 34.05 5.578-2.48-4.961-11.15 25.76-11.47 18.32 41.13-25.77 11.47-5.028-11.3-5.578 2.481 15.17 34.05 5.574-2.476-5.039-11.3 58.47-26.04 5.039 11.31 5.574-2.493-15.16-34.05-5.578 2.48 5.031 11.31-26.67 11.88-18.31-41.14 26.67-11.88 4.961 11.15 5.578-2.476-15.17-34.06-5.574 2.481m61.1 171.4c4.218-3.172 5.086-9.414 1.914-13.63-3.274-4.343-9.414-5.086-13.63-1.914-4.348 3.274-5.188 9.289-1.914 13.63 3.172 4.211 9.285 5.188 13.63 1.914m898-19.1c-4.27-3.105-10.49-2.117-13.59 2.16-3.2 4.395-2.11 10.49 2.15 13.58 4.41 3.203 10.4 2.258 13.6-2.144 3.1-4.27 2.24-10.4-2.16-13.6m-75-778.2 5.54 4.17 3.97-5.28-19.1-14.38-3.97 5.26 7.5 5.66-47.27 28.2 13.68-53.52 8.3 6.27 3.97-5.28-25.55-19.26-3.972 5.28 6.453 4.86-19.38 75.04 3.164 2.38 66.66-39.4m-122.6-6.7-10.93-5.81 29.82-56.07 10.93 5.8 3.098-5.82-32.91-17.5-3.106 5.82 10.93 5.81-29.81 56.08-10.93-5.81-2.859 5.39 32.92 17.5 2.864-5.39m-74.4-102.3 11.94 3.2 1.711-6.36-32.02-8.59-1.707 6.38 12.11 3.24-12.21 45.57-30.86-63.94-20.55-5.51-1.711 6.38 11.15 2.99 2.071 4.99-15.32 57.2-11.95-3.21-1.574 5.9 32.02 8.59 1.582-5.9-12.11-3.25 12.59-47 31.7 66.56 4.778 1.28 18.4-68.54m-134.8-33.8-33.14-.58-.118 6.61 12.37.21-.723 41.23c-.234 13.36-9.305 22.77-21.68 22.55-12.03-.2-19.95-9.58-19.72-23.1l.723-41.4 12.53.22.118-6.6-37.43-.65-.117 6.59 12.53.22-.781 44.86c-.274 15.51 12.39 27.11 30.04 27.42 18.8.32 31.88-11.66 32.19-29.47l.735-41.72 12.36.21.117-6.6m-139.1 37.9-30.93 6.02 2.395 12.3 30.93-6-2.391-12.32m-68.4 55.22-13.25 4.56-20.68-60.05 22.77-7.84 3.008 8.74 5.769-1.99-6.23-18.09-5.77 1.98 1.075 3.12-57.4 19.76-1.074-3.11-5.614 1.93 6.231 18.09 5.613-1.93-3.008-8.74 22.77-7.84 20.68 60.05-13.26 4.56 1.992 5.77 38.37-13.21-2-5.8m-151.4 81.4 33.16-20.72c19.3-12.06 25.2-35 13.65-53.46-11.27-18.04-35.02-23.05-54.04-11.16l-33.16 20.71 3.242 5.18 10.49-6.55 33.92 54.26-10.49 6.57 3.231 5.17zm17.63-18.8-33.4-53.43 11.06-6.91c12.87-8.04 30.14-2.5 39.58 12.61 9.446 15.11 6.68 32.78-6.328 40.92l-10.91 6.81m671.9 808.4 9.05-8.437-4.5-4.825-24.25 22.61 4.5 4.82 9.17-8.543 32.17 34.5-70.57-7.715-15.57 14.52 4.504 4.82 8.445-7.871 5.332.883 40.4 43.31-9.06 8.438 4.17 4.465 24.24-22.61-4.16-4.464-9.17 8.546-33.18-35.58 73.23 8.386 3.62-3.367-48.37-51.88m-62.7 132-10.61 6.363-32.71-54.43 10.61-6.367-3.399-5.652-31.95 19.2 3.398 5.653 10.61-6.375 32.71 54.43-10.6 6.375 3.144 5.234 31.95-19.21-3.144-5.222m-76.5 30-5.536 2.125 3.602 9.394-25.87 9.934-22.58-58.82 11.54-4.441-2.364-6.152-34.8 13.36 2.371 6.152 11.54-4.425 22.76 59.29-11.55 4.434 2.187 5.695 54.67-20.99-5.976-15.55m-100.4 48-4.562.719c-3.582.578-6.993-.887-10.41-4.531l-18.65-19.75c10.44-3.652 15.85-12.7 14.12-23.61-2.09-13.2-11.67-18.86-27.47-16.36l-38.45 6.093 1.035 6.516 12.22-1.934 9.93 62.73-12.22 1.93.957 6.027 36.82-5.828-.961-6.027-12.21 1.934-4.278-27.04 7.981-1.27 21.58 23.47c5.054 5.547 6.465 5.996 13.63 4.863l11.89-1.883-.957-6.035zm-59.78-54.83 11.39-1.804c8.477-1.336 13.84 2.988 15.29 12.11 1.414 8.965-2.676 15.79-10.5 17.03l-11.56 1.825-4.617-29.16m-72.9 61-6.094-.215-.301 8.742-28.03-.976 1.004-28.86 21.1.746-.285 8.242 6.094.215.8-22.92-6.101-.047-.274 7.918-21.1-.743.957-27.53 27.04.95-.305 8.574 5.938.207.644-18.47-6.101-.215-.117 3.301-51.76-1.809-.215 6.106 12.36.43-2.226 63.96-12.37-.433-.211 6.106 59.01 2.059.528-15.33m-142.9 0c15.2 3.789 25.76-1.055 28.84-13.38 2.988-12-4.012-21.4-19.26-25.71 11.68 2.914 21.88-1.856 24.27-11.45 2.8-11.2-4.055-20.55-17.66-23.96l-39.04-9.734-1.484 5.93 12 2.984-15.48 62.1-12-2.996-1.473 5.926 41.29 10.29zm-8.352-39.48 11.52 2.879c10.57 2.629 14.57 9.07 12.1 19-2.277 9.117-8.878 12.4-19.44 9.773l-11.36-2.844 7.175-28.8zm8.067-32.32 11.36 2.832c7.84 1.953 10.89 7.468 8.895 15.48-2.039 8.164-8.477 12.17-16.47 10.16l-10.3-4 6.465-25.92m-78.5-33-28.99-16.08-3.203 5.774 10.82 5.992-19.99 36.07c-6.473 11.69-18.91 15.74-29.73 9.739-10.53-5.832-13.12-17.83-6.563-29.66l20.07-36.21 10.97 6.074 3.195-5.774-32.75-18.15-3.203 5.77 10.97 6.086-21.75 39.24c-7.52 13.56-1.785 29.75 13.65 38.31 16.45 9.114 33.61 4.68 42.26-10.91l20.24-36.5 10.81 5.996 3.203-5.77m-141-18-4.551-3.815-7.207 8.589-33.6-28.2 78.8-20 2.332-2.781-44.86-37.64 2.121-2.531-4.543-3.816-11.88 14.15 4.543 3.82 5.516-6.574 31.59 26.5-78.66 20.36-2.234 2.644 51.18 42.95 11.6-13"/></g></svg>