<svg xmlns="http://www.w3.org/2000/svg" width="1024" height="308" version="1.0" viewBox="0 0 294.56 88.583"><path fill="#1b62b7" d="M.156 0v61.875h1.375V1.406H62V0H.156zm35.625 9.438c-10.063 0-18.788 5.676-23.187 14H59c-4.401-8.315-13.155-13.994-23.219-14zm-23.187 14a26.2 26.2 0 0 0-3.031 12.25c0 2.276.296 4.507.843 6.624l24.344 2.813v-10.5H62a25.799 25.799 0 0 0-.813-5.594l-48.593-5.593zm263.219-5.22c-1.977 0-2.844 1.218-2.844 3.063v2.532h-1.781v1.5h1.78v9.812h1.876v-9.813h2.062v-1.5h-2.062v-2.375c0-1.132.305-1.718 1.344-1.718.445 0 .87.071 1.093.25v-1.594c-.422-.109-.958-.156-1.469-.156zm-91.282.25v16.657h1.875V18.469h-1.875zm-37.625.657v2.219h2.063v-2.219h-2.063zm80.031 0v2.219h2.032v-2.219h-2.031zm-148.218.5v15.5h1.937v-15.5H78.72zm116.719 0v15.5h1.937v-15.5h-1.938zm-97.875 1.313-1.876.562v2.313h-1.812v1.5h1.813v7.28c0 2.002.912 2.688 2.624 2.688.512 0 1.12-.126 1.563-.281v-1.5c-.355.155-.689.281-1.156.281-.843 0-1.156-.492-1.156-1.781v-6.688h2.312v-1.5h-2.313v-2.875zm45.124 0-1.875.562v2.313h-1.78v1.5h1.78v7.28c0 2.002.915 2.688 2.625 2.688.512 0 1.148-.126 1.594-.281v-1.5c-.355.155-.689.281-1.156.281-.841 0-1.187-.492-1.188-1.781v-6.688h2.344v-1.5h-2.344v-2.875zm80.032 0-1.875.562v2.313h-1.813v1.5h1.813v7.28c0 2.002.907 2.688 2.625 2.688A5.15 5.15 0 0 0 225.03 35v-1.5c-.355.155-.661.281-1.125.281-.844 0-1.187-.492-1.187-1.781v-6.688h2.312v-1.5h-2.312v-2.875zm11.937 0-1.844.562v2.313H231v1.5h1.813v7.28c0 2.002.912 2.688 2.625 2.688.51 0 1.115-.126 1.562-.281v-1.5c-.355.155-.689.281-1.156.281-.845 0-1.188-.492-1.188-1.781v-6.688H237v-1.5h-2.344v-2.875zm17.75 0-1.875.562v2.313h-1.781v1.5h1.781v7.28c0 2.002.911 2.688 2.625 2.688.511 0 1.149-.126 1.594-.281v-1.5c-.356.155-.689.281-1.156.281-.841 0-1.188-.492-1.188-1.781v-6.688h2.344v-1.5h-2.344v-2.875zm-163.75 2.718c-1.31 0-2.274.554-2.875 1.844h-.031l-.094-1.688h-1.781c.024.8.094 1.614.094 2.438v8.875h1.844v-6.813c0-2.042.94-3.062 2.406-3.062 1.2 0 1.875.762 1.875 2.563v7.312h1.875v-7.844c0-2.491-1.334-3.625-3.313-3.625zm16.844 0c-2.824 0-4.375 2.258-4.375 5.813 0 3.556 1.561 5.812 4.563 5.812 1.136 0 2.3-.235 3.187-.656l-.094-1.688c-.647.465-1.659.938-2.594.938-2.066 0-3.093-1.224-3.093-3.844h6.406v-1c0-3.33-1.442-5.375-4-5.375zm11.313 0c-1.667 0-2.62.559-3.22 1.938h-.03l-.063-1.782h-1.813c.023.8.094 1.614.094 2.438v8.875h1.875v-6c0-2.462 1.023-3.688 2.469-3.688.241 0 .465.018.688.063v-1.844zm6.468 0c-1.31 0-2.276.554-2.875 1.844h-.062l-.063-1.688H118.5c.022.8.094 1.614.094 2.438v8.875h1.844v-6.813c0-2.042.937-3.062 2.406-3.062 1.2 0 1.875.762 1.875 2.563v7.312h1.875v-7.844c0-2.491-1.337-3.625-3.313-3.625zm9.875 0a5.956 5.956 0 0 0-3.187.938l.187 1.75c.647-.712 1.75-1.188 2.906-1.188.78 0 1.527.21 1.907.719.356.49.406.969.406 1.813v.5h-1.094c-3.891 0-5.312 1.642-5.312 3.843 0 2.179 1.382 3.25 3.25 3.25 1.734 0 2.675-.821 3.187-1.687h.031l.125 1.531h1.688a17.488 17.488 0 0 1-.094-1.719V27.5c0-1.598-.48-2.291-.969-2.781-.355-.355-1.368-1.063-3.03-1.063zm22.813 0c-2.999 0-4.531 2.258-4.531 5.813 0 3.556 1.532 5.812 4.53 5.812 3 0 4.563-2.256 4.563-5.812 0-3.555-1.562-5.813-4.562-5.813zm11.625 0c-1.313 0-2.246.554-2.844 1.844h-.063l-.062-1.688h-1.813c.023.8.094 1.614.094 2.438v8.875h1.875v-6.813c0-2.042.936-3.062 2.406-3.062 1.2 0 1.875.762 1.875 2.563v7.312h1.844v-7.844c0-2.491-1.334-3.625-3.312-3.625zm9.906 0c-1.111 0-2.287.334-3.219.938l.219 1.75c.644-.712 1.754-1.188 2.906-1.188.78 0 1.499.21 1.875.719.355.49.438.969.438 1.813v.5h-1.094c-3.889 0-5.344 1.642-5.344 3.843 0 2.179 1.418 3.25 3.281 3.25 1.74 0 2.678-.821 3.188-1.687h.031l.094 1.531h1.719a16.389 16.389 0 0 1-.094-1.719V27.5c0-1.598-.484-2.291-.969-2.781-.357-.355-1.366-1.063-3.031-1.063zm27.844 0c-1.311 0-2.243.554-2.844 1.844h-.063l-.062-1.688h-1.781c.025.8.062 1.614.062 2.438v8.875h1.875v-6.813c0-2.042.938-3.062 2.406-3.062 1.203 0 1.876.762 1.875 2.563v7.312h1.875v-7.844c0-2.491-1.367-3.625-3.343-3.625zm9.344 0c-2.203 0-3.657 1.417-3.657 3.282 0 1.443.598 2.17 2.219 2.906l1.25.562c1.045.468 1.437 1.002 1.438 1.782 0 .864-.733 1.593-2.157 1.593-.931 0-1.81-.331-2.656-.843L211 34.624c.824.421 1.884.656 3.063.656 2.6 0 3.656-1.546 3.656-3.5 0-1.401-.87-2.32-2.25-2.875l-.656-.281c-1.243-.491-1.907-.995-1.907-1.906 0-.889.621-1.563 1.844-1.563a5.49 5.49 0 0 1 2.219.5l.094-1.593c-.645-.244-1.446-.407-2.375-.407zm45.687 0c-2.826 0-4.406 2.259-4.406 5.813 0 3.557 1.561 5.812 4.562 5.812 1.135 0 2.304-.236 3.188-.656l-.094-1.688c-.645.467-1.66.938-2.594.938-2.067 0-3.094-1.225-3.094-3.844h6.407v-1c0-3.331-1.418-5.375-3.969-5.375zm22.219 0c-3.002 0-4.563 2.258-4.563 5.813 0 3.556 1.561 5.812 4.563 5.812 3 0 4.531-2.256 4.531-5.812 0-3.555-1.531-5.813-4.531-5.813zm11.969 0c-1.667 0-2.618.559-3.22 1.938h-.062l-.062-1.782h-1.781c.016.802.093 1.614.093 2.438v8.875h1.844v-6c0-2.462 1.022-3.688 2.469-3.688.245 0 .498.018.719.063v-1.844zM147 23.813v11.312h1.875V23.812H147zm80.031 0v11.312h1.875V23.812h-1.875zm11.781 0v7.843c0 2.49 1.334 3.625 3.313 3.625 1.311 0 2.242-.556 2.844-1.843h.062l.063 1.687h1.812c-.024-.8-.094-1.615-.094-2.438v-8.874h-1.875v6.812c0 2.044-.938 3.062-2.406 3.063-1.198 0-1.843-.762-1.844-2.563v-7.313h-1.875zm-133.406 1.25c1.489 0 2.219 1.177 2.219 3.53h-4.531c.042-2.644 1.111-3.53 2.312-3.53zm154.844 0c1.49 0 2.219 1.176 2.219 3.53h-4.531c.044-2.645 1.11-3.53 2.312-3.53zm-104.281.093c1.78 0 2.625 1.468 2.625 4.313 0 2.845-.845 4.312-2.625 4.312-1.774 0-2.594-1.467-2.594-4.312s.82-4.313 2.594-4.313zm126.625 0c1.778 0 2.594 1.468 2.594 4.313 0 2.845-.815 4.312-2.594 4.312-1.78 0-2.625-1.467-2.625-4.312s.845-4.313 2.625-4.313zm-148.531 4.375c.508 0 .978.018 1.312.063V31c0 1.555-1.034 2.875-2.656 2.875-1.289 0-1.906-.767-1.906-1.969 0-1.311 1.046-2.375 3.25-2.375zm44.343 0c.514 0 .983.018 1.313.063V31c0 1.555-1.03 2.875-2.656 2.875-1.283 0-1.907-.767-1.907-1.969 0-1.311 1.053-2.375 3.25-2.375zM36.844 36.72v8.625L59 47.906a26.306 26.306 0 0 0 3-11.187H36.844zM59 47.906H36.844v13.969C46.46 61.501 54.752 55.947 59 47.906zM113.344 45v16.656h1.844V45h-1.844zm26.5 0v6.875h-.031c-.757-1.199-1.617-1.688-2.907-1.688-2.334 0-3.906 1.903-3.906 5.813 0 3.911 1.572 5.813 3.906 5.813 1.645 0 2.511-.924 3-1.813h.031l.063 1.656h1.813c-.023-.69-.094-1.404-.094-2.093V45h-1.875zm118.531 0v16.656h1.844V45h-1.844zm-139.969.656v2.219h2.031v-2.219h-2.03zm162.719 0v2.219h2.063v-2.219h-2.063zM153.969 46c-2.356 0-4.313 1.319-4.313 3.875 0 2 .638 2.966 3.438 4.656 2.086 1.267 2.406 1.955 2.406 3.157 0 1.267-.996 2.437-2.75 2.437-.915 0-2.08-.467-2.969-1v2.031c.821.4 2.003.657 3.25.657 2.975 0 4.5-1.94 4.5-4.407 0-1.779-.787-3.121-3.187-4.5-2.221-1.287-2.625-1.906-2.625-2.906 0-1.311.938-2.313 2.406-2.313.954 0 1.921.277 2.656.72V46.5c-.69-.289-1.787-.5-2.812-.5zm-71.594.156-5.188 15.5h1.938l1.25-4.031h5.906l1.25 4.031h2.031l-5.062-15.5h-2.125zm145.406 0-5.187 15.5h1.937l1.25-4.031h5.906l1.25 4.031h2.032l-5.063-15.5h-2.125zM180.5 47.47l-1.875.562v2.313h-1.813v1.5h1.813v7.281c0 1.999.92 2.688 2.625 2.688.515 0 1.116-.125 1.563-.282v-1.5c-.355.157-.692.282-1.157.282-.845 0-1.156-.493-1.156-1.782v-6.687h2.313v-1.5H180.5v-2.875zm-167.906.437c4.247 8.029 12.542 13.595 22.156 13.969V47.906H12.594zm70.75.282h.062l2.375 7.75h-4.875l2.438-7.75zm145.406 0h.063l2.375 7.75h-4.875l2.437-7.75zm-132.781 2c-1.644 0-2.511.927-3 1.812h-.031l-.063-1.656h-1.813c.023.689.094 1.401.094 2.093V66.47h1.875v-6.344h.031c.757 1.197 1.618 1.688 2.907 1.688 2.336 0 3.906-1.902 3.906-5.813 0-3.91-1.57-5.813-3.906-5.813zm10.906 0c-1.645 0-2.511.927-3 1.812h-.031l-.063-1.656h-1.812c.021.689.094 1.401.094 2.093V66.47h1.874v-6.344h.032c.756 1.197 1.617 1.688 2.906 1.688 2.335 0 3.906-1.902 3.906-5.813 0-3.91-1.571-5.813-3.906-5.813zm20.406 0c-2.821 0-4.375 2.257-4.375 5.812 0 3.556 1.563 5.813 4.563 5.813 1.132 0 2.297-.234 3.187-.657l-.094-1.687c-.645.467-1.66.937-2.593.937-2.066 0-3.094-1.222-3.094-3.843h6.406v-1c0-3.337-1.442-5.376-4-5.376zm45.156 0c-2.197 0-3.625 1.413-3.625 3.28 0 1.444.6 2.172 2.22 2.907l1.25.563c1.043.467 1.437 1.005 1.437 1.78 0 .867-.737 1.595-2.156 1.594-.935 0-1.813-.332-2.657-.843l-.125 1.687c.825.423 1.888.656 3.063.657 2.601 0 3.656-1.545 3.656-3.5 0-1.4-.877-2.32-2.25-2.876l-.656-.28c-1.245-.49-1.938-.996-1.938-1.907 0-.89.651-1.563 1.875-1.563.845 0 1.643.237 2.219.5l.094-1.624c-.645-.244-1.471-.376-2.406-.376zm16 0c-2.818 0-4.375 2.257-4.375 5.812 0 3.556 1.558 5.813 4.563 5.813 1.125 0 2.296-.234 3.188-.657l-.094-1.687c-.645.467-1.66.937-2.594.937-2.07 0-3.094-1.222-3.094-3.843h6.406v-1c0-3.337-1.44-5.376-4-5.376zm10.907 0c-1.244 0-2.208.556-2.813 1.843h-.031l-.063-1.687h-1.812c.021.798.094 1.617.094 2.437v8.875h1.875v-7c0-2.045.746-2.875 2.125-2.875 1.11 0 1.718.65 1.719 2.094v7.781h1.875v-7c0-2.045.747-2.875 2.125-2.875 1.112 0 1.75.65 1.75 2.094v7.781h1.843v-7.843c0-2.49-1.324-3.626-3.281-3.626-1.294 0-2.151.668-2.75 1.782-.58-1.157-1.458-1.782-2.656-1.782zm14.687 0c-2.2 0-3.625 1.413-3.625 3.28 0 1.444.594 2.172 2.219 2.907l1.25.563c1.044.467 1.438 1.005 1.438 1.78 0 .868-.736 1.595-2.157 1.594-.934 0-1.81-.332-2.656-.843l-.125 1.687c.822.423 1.885.656 3.063.657 2.6 0 3.656-1.545 3.656-3.5 0-1.4-.869-2.32-2.25-2.876l-.656-.28c-1.247-.49-1.907-.996-1.907-1.907 0-.89.621-1.563 1.844-1.563.845 0 1.67.237 2.25.5l.063-1.624c-.644-.244-1.47-.376-2.407-.376zm27.406 0c-1.31 0-2.273.556-2.875 1.843h-.062l-.063-1.687h-1.78c.02.798.093 1.616.093 2.437v8.875h1.844v-6.812c0-2.047.935-3.063 2.406-3.063 1.195 0 1.875.763 1.875 2.563v7.312h1.875v-7.843c0-2.49-1.336-3.626-3.313-3.626zm9.875 0a5.967 5.967 0 0 0-3.187.937l.188 1.75c.642-.711 1.75-1.188 2.906-1.188.782 0 1.53.21 1.906.72.356.49.406.966.406 1.812v.5h-1.094c-3.892 0-5.312 1.643-5.312 3.843 0 2.177 1.384 3.25 3.25 3.25 1.732 0 2.676-.823 3.188-1.687h.03l.126 1.531h1.687a16.451 16.451 0 0 1-.094-1.718V54.03c0-1.597-.478-2.294-.968-2.781-.358-.355-1.369-1.063-3.031-1.063zm24.344 0c-2.2 0-3.625 1.413-3.625 3.28 0 1.444.595 2.173 2.219 2.907l1.25.563c1.045.467 1.437 1.005 1.438 1.78 0 .868-.737 1.595-2.157 1.594-.932 0-1.807-.332-2.656-.843L272 61.156c.824.423 1.884.656 3.063.657 2.6 0 3.656-1.545 3.656-3.5 0-1.4-.868-2.32-2.25-2.876l-.656-.28c-1.245-.49-1.907-.996-1.907-1.907 0-.89.623-1.563 1.844-1.563a5.49 5.49 0 0 1 2.219.5l.094-1.624c-.643-.244-1.473-.376-2.407-.376zm13.625 0c-2.2 0-3.656 1.413-3.656 3.28 0 1.444.598 2.173 2.219 2.907l1.25.563c1.042.467 1.437 1.005 1.437 1.78 0 .868-.735 1.595-2.156 1.594-.934 0-1.814-.332-2.656-.843l-.125 1.687c.822.423 1.886.656 3.062.657 2.603 0 3.656-1.545 3.656-3.5 0-1.4-.868-2.32-2.25-2.876l-.656-.28c-1.246-.49-1.906-.996-1.906-1.907 0-.89.653-1.563 1.875-1.563.845 0 1.636.237 2.219.5l.062-1.624c-.642-.244-1.441-.376-2.375-.376zm-170.781.156v11.312h1.844V50.344H118.5zm40.344 0 3.594 11.5-.47 1.718c-.308 1.178-.714 1.438-1.25 1.438-.395 0-.71-.086-1-.219l-.093 1.688c.333.087.805.125 1.25.125 1.423 0 2.224-.691 2.781-2.625l3.938-13.625h-1.844l-2.375 9.218h-.031l-2.531-9.218h-1.97zm103.219 0 3.593 11.5-.437 1.718c-.313 1.178-.717 1.438-1.25 1.438-.398 0-.739-.086-1.031-.219l-.094 1.688c.334.087.838.125 1.281.125 1.425 0 2.228-.691 2.781-2.625l3.906-13.625h-1.843l-2.375 9.218h-.031l-2.532-9.218h-1.969zm19.156 0v11.312h1.875V50.344h-1.875zm-154.031 1.25c1.488 0 2.218 1.175 2.218 3.531h-4.531c.046-2.644 1.111-3.531 2.313-3.531zm61.156 0c1.486 0 2.219 1.175 2.219 3.531h-4.532c.045-2.644 1.114-3.531 2.313-3.531zm-92.844.093c1.71 0 2.5 1.47 2.5 4.313 0 2.846-.79 4.313-2.5 4.313-1.713 0-2.469-1.467-2.469-4.313 0-2.844.756-4.313 2.469-4.313zm10.938 0c1.708 0 2.468 1.47 2.468 4.313 0 2.846-.76 4.313-2.469 4.313-1.712 0-2.5-1.467-2.5-4.313 0-2.844.788-4.313 2.5-4.313zm30.906 0c1.706 0 2.5 1.47 2.5 4.313 0 2.846-.794 4.313-2.5 4.313-1.712 0-2.469-1.467-2.469-4.313 0-2.844.757-4.313 2.469-4.313zm114.875 4.376c.51 0 .978.017 1.312.062v1.406c0 1.556-1 2.875-2.625 2.875-1.287 0-1.906-.767-1.906-1.968 0-1.312 1.018-2.376 3.219-2.376zM43.813 69.156c-1.797 0-3.063 1.763-3.063 4.313 0 3.884 3.25 8.139 3.25 11.062 0 1.016-.663 1.844-1.469 1.844-.562 0-1.148-.413-1.687-1.063v2.532c.652.511 1.235.75 1.906.75 1.841 0 3.094-1.8 3.094-4.375 0-3.966-3.219-8.059-3.219-11.063 0-1.219.495-1.812 1.438-1.812.447 0 .79.167 1.374.594v-2.282c-.626-.37-1.087-.5-1.624-.5zM27 69.281l-2.844 19.063h1.875l.563-4.219h2.781l.563 4.219h1.843L28.97 69.28H27zm30.594 0L54.78 88.344h1.844l.594-4.219H60l.531 4.219h1.875L59.594 69.28h-2zM0 69.406v18.906h1.938V69.406H0zm12.625 0v18.906h1.938V69.406h-1.938zm15.313 4.531H28l1.063 7.938h-2.157l1.032-7.938zm30.625 0h.062l1.031 7.938H57.5l1.063-7.938z"/></svg>