<svg xmlns="http://www.w3.org/2000/svg" xml:space="preserve" id="Layer_1" x="0" y="0" version="1.1" viewBox="0 0 367.7 102.7"><style>.st0{fill:#003c70}</style><path d="M3.4 44.2V6.3h7.4v37.9H3.4zM21.7 20.3c1.9-2.4 5.3-3.8 8.4-3.8 3.3 0 6.2 1.4 7.8 3.8 2.2-2.2 5.6-3.8 8.8-3.8 6-.1 9.1 3.7 9.2 9.9v17.8h-7V27.7c0-3.1-1.1-6.4-4.5-6.4s-5.5 2.1-5.5 6.8v16.2h-7V27.7c0-3.8-1.6-6.4-4.6-6.4-3.3 0-5.4 2.3-5.4 6.9v16h-7V17.1h7v3.2h-.2zM73.5 20.8c4 0 6 4.7 6 9.3 0 4.8-1.6 10.4-6.3 10.4-3.8 0-6.5-3.8-6.5-9.5.1-6.3 2.4-10.2 6.8-10.2zm-6.7-3.7h-7v40.7h7v-17c2 2.4 4.7 4 7.9 4C82.2 44.8 87 37.2 87 30c0-6-3.4-13.6-11.7-13.6-3.2 0-6.6 1.6-8.4 4.4h-.1v-3.7zM97 27.4c-.1-3.6 1.7-6.9 5.8-6.9 3.5 0 4.9 2.8 4.6 6.9H97zm17 3.9c.5-8.1-2.9-14.8-11.1-14.8-7.5 0-13.5 5.3-13.5 13.7 0 8.9 6 14.7 13.9 14.7 3 0 6.8-.9 10.3-3l-2-3.8c-1.7 1.2-4.5 2.2-7.1 2.2-4.4 0-7.9-3.8-7.7-8.9H114v-.1zM124.4 21.9h.1l1.4-2.1c.8-1.1 2.4-3.3 4.5-3.3 1.6 0 3.3.9 4.8 2.4l-2.6 5c-1.2-.6-1.9-.9-3.3-.9-2.4 0-4.8 2-4.8 7.9v13.4h-7V17.1h7l-.1 4.8zM144.4 17.1v27.1h-7V17.1h7zM136.7 9c0-2.1 1.7-4.2 4.1-4.2 2.4 0 4.3 2.1 4.3 4.2 0 2.3-1.6 4.5-4.2 4.5-2.5 0-4.2-2.2-4.2-4.5zM163.5 28.5c.5 8-3.1 11.5-5.9 11.5-1.7 0-3.2-1.6-3.2-4 0-3.1 1.7-5.1 5.2-6.2l3.9-1.3zm-.1 11.7c0 1.5.2 3 .7 4h7.4c-.8-1.9-1.1-4.4-1.1-6.6V26.5c0-8.5-6-10.1-10.8-10.1-3.6 0-6.9.9-10.1 3.7l2.3 3.4c1.8-1.6 4-2.8 7-2.8 2.3 0 4.4 1.6 4.8 4.1l-6.2 1.9c-6.1 1.8-9.8 4.7-9.8 9.9 0 5 3.4 8.2 7.5 8.2 2.4 0 4.8-1.7 6.8-3.3l1.5-1.3zM174.8 44.2V4.4h7v39.8h-7zM228.1 13.1c-1.8-1-4.8-2.1-7.7-2.1-7.6 0-13.1 5.5-13.1 14.1 0 9 6.1 14.3 13.3 14.3 2.9 0 5.5-.8 7.4-1.9l2.1 4.7c-2.3 1.4-6.2 2.6-9.8 2.6-12.8 0-20.9-8.7-20.9-19.8 0-10.4 8-19.4 21-19.4 3.9 0 7.4 1.4 10 2.9l-2.3 4.6zM244.1 40.8c-5 0-6.4-5.7-6.4-10.5 0-4.5 1.6-9.9 6.4-9.9 4.9 0 6.4 5.4 6.4 9.9 0 4.8-1.3 10.5-6.4 10.5zm0 4.1c8.3 0 13.9-6.1 13.9-14.5 0-8.8-6.7-13.9-13.9-13.9-7.1 0-13.8 5.1-13.8 13.9 0 8.3 5.5 14.5 13.8 14.5zM261 44.2V4.4h7v39.8h-7zM272.4 44.2V4.4h7v39.8h-7zM289.9 27.4c-.1-3.6 1.7-6.9 5.7-6.9 3.5 0 4.9 2.8 4.6 6.9h-10.3zm17 3.9c.5-8.1-2.9-14.8-11.1-14.8-7.5 0-13.5 5.3-13.5 13.7 0 8.9 6 14.7 13.9 14.7 3 0 6.8-.9 10.3-3l-2-3.8c-1.7 1.2-4.5 2.2-7.1 2.2-4.4 0-7.9-3.8-7.7-8.9h17.2v-.1zM347.2 27.4c-.1-3.6 1.7-6.9 5.8-6.9 3.5 0 4.9 2.8 4.6 6.9h-10.4zm17 3.9c.5-8.1-2.9-14.8-11.1-14.8-7.5 0-13.5 5.3-13.5 13.7 0 8.9 6 14.7 13.9 14.7 3 0 6.8-.9 10.3-3l-2-3.8c-1.7 1.2-4.5 2.2-7.1 2.2-4.4 0-7.9-3.8-7.7-8.9h17.2v-.1zM323.3 20.8c4.2 0 6.4 4.4 6.4 9.1 0 5.4-2 10.6-6.7 10.6-4.1 0-6.1-5.1-6.1-10.4.1-5.2 1.9-9.3 6.4-9.3zm13.4-3.7h-7v3.3h-.1c-1.5-2.4-4.6-4-7.9-4-7.2 0-12.2 6.8-12.2 13.9 0 8.7 4.6 14.5 11.6 14.5 4 0 6.8-2.3 8.5-4.6h.1v3.6c0 6.3-3.6 9.2-8.2 9.2-3.6 0-6.6-.7-9.2-2.3l-1.4 4.4c3.1 1.6 7.1 2.6 11.1 2.6 7.9 0 14.7-4 14.7-16V17.1zM3.4 60.5h7.5v32.8h15.8v5.1H3.4V60.5zM67.8 74.5c2.5-2.6 6-3.8 9.5-3.8 6.5 0 9.6 3.5 9.6 10.3v17.5h-7.1V81.9c0-3.8-1.7-6.3-5.6-6.3-3.6 0-6.4 2.3-6.4 6.8v16.2h-7.1V71.3h7l.1 3.2zM105.2 75c4.4 0 6.7 4.4 6.7 9.1 0 5.4-2.1 10.6-7.1 10.6-4.3 0-6.4-5.1-6.4-10.4s2-9.3 6.8-9.3zm6.7 23.4h7.1V58.6h-7.1v15.9h-.1c-1.7-2.4-4.9-3.8-8.5-3.8-7.4 0-12.7 6.8-12.7 13.9 0 8.7 4.8 14.5 12.1 14.5 4.3 0 7.2-2.3 9-4.6h.1v3.9h.1zM137.3 95c-5.3 0-6.7-5.7-6.7-10.5 0-4.5 1.7-9.9 6.7-9.9 5.2 0 6.8 5.4 6.8 9.9-.1 4.8-1.5 10.5-6.8 10.5zm0 4.1c8.7 0 14.6-6.1 14.6-14.5 0-8.8-7.1-13.9-14.6-13.9-7.4 0-14.5 5.1-14.5 13.9-.1 8.3 5.8 14.5 14.5 14.5zM162.7 74.5c2.5-2.6 6-3.8 9.5-3.8 6.5 0 9.6 3.5 9.6 10.3v17.5h-7.1V81.9c0-3.8-1.7-6.3-5.6-6.3-3.6 0-6.4 2.3-6.4 6.8v16.2h-7.1V71.3h7v3.2h.1zM42.2 95c-5.3 0-6.7-5.7-6.7-10.5 0-4.5 1.7-9.9 6.7-9.9 5.2 0 6.8 5.4 6.8 9.9 0 4.8-1.4 10.5-6.8 10.5zm0 4.1c8.7 0 14.6-6.1 14.6-14.5 0-8.8-7.1-13.9-14.6-13.9-7.4 0-14.5 5.1-14.5 13.9 0 8.3 5.9 14.5 14.5 14.5z" class="st0"/></svg>