<svg xmlns="http://www.w3.org/2000/svg" xml:space="preserve" id="stc-logo" x="0" y="0" version="1.1" viewBox="0 0 209.2 43.4"><style>.st0{fill:#eb3426}.st1{fill:#010202}</style><path d="M37.4 10.8c1.7-2.1 2.5-3 2.4-3.6-.1-.4-.6-.8-1.1-1-.7-.2-1.6-.4-2-.1-.1.1-.4.4-1 1.1l-.6.6c-.4-.4-.8-.7-1.1-1.1-2.7-2.3-5.9-3.9-9.5-4.4C23.1.8 21.2.1 19.4.4c-1.6.2-2.9 1.2-3.8 2.6C12 4.1 8.7 6.2 6.2 9c-.6-.3-1.9 0-2.7.4-.4.3-.7.6-.8.9-.1.2.1.6 1.1 1.7C1.2 16.1.2 20.8.7 25.4c.6 4.7 2.8 9 6.4 12.2 1.3 1.1 2.6 2 4.1 2.7 2.1 1.1 4.5 1.7 7 2.1 5.3.7 10.4-.4 14.6-2.9.6-.3.7-.9.4-1.6l-.1-.2c-1.1-2.4-4.4-9.8-2.6-16.6.7-2.8 3-5.9 4.9-8.2 2.1 3.2 3.1 6.9 2.9 10.7-.1 3.4-1.3 6.8-3.4 9.5-.1.1-.1.2-.1.3v.1l.2.5c.1.1.2.2.4.2s.2-.1.3-.1c5.5-6.7 6.2-16.2 1.7-23.3zm-24 16c-.4 2.6-1 6-.5 11.3-1.4-.7-2.7-1.6-3.9-2.6-3.2-2.8-5.4-6.6-6.2-10.8-.7-4-.1-8 1.9-11.5l2.6 2.6c2.2 2.2 4.8 4.7 6.1 6.5.6.9.3 2.3 0 4.5zM32.9 10c-4.2 4.2-8 6.4-11.7 6.7-2.7.2-5.7-.6-8.6-2.4-2.4-1.5-4.3-3.3-5.4-4.3l-.1-.2c2.1-2.2 4.6-3.8 7.5-4.7-.3 1.1-.4 2.3-.2 3.6.3 2.2 1.4 4.1 3.1 5.2 1.2.9 2.7 1.3 4.1 1.1 1.4-.2 2.7-1.1 3.6-2.3 1.2-1.6 1.6-3.7 1.3-5.9-.1-.4-.1-.8-.2-1.2 2.1.8 4 1.9 5.7 3.4.3.3.6.7.9 1z" class="st0"/><path d="M102.8 21.1h-3.4V25c0 .9.5 1.5 1.4 1.5.6 0 1.2-.1 2-.6V28c-1.1.4-1.8.6-2.7.6-1.9 0-3.6-.9-3.6-3.5V21h-1.3v-.5l3.9-4.4h.4V19h3.4c0 .1-.1 2.1-.1 2.1zm40.3 3.1c-2 .9-3.2 1.5-5 1.5-2.9 0-4.9-1.7-4.9-4.2 0-2.4 2.1-4.2 5-4.2 1.7 0 3.2.6 4.8 1.4v-3.1c-1.4-.8-3.1-1.2-5-1.2-5.3 0-8.4 3.4-8.4 7.2 0 3.6 2.7 7 8 7 2.1 0 3.5-.4 5.4-1.4l.1-3zm-71.9 3-2.1 1.4c-.9-.2-1.5-.7-1.8-1.2-.6.5-1.2 1.2-2.8 1.2-3.2 0-4.4-2.8-4.4-4.9 0-2.2 1.4-4.9 4.6-4.9 1.2 0 2 .4 2.4.6V19H70v6.1c0 .9.1 1.9 1.2 2.1zm-4.1-5.8c-.3-.2-.9-.6-1.7-.6-1.7 0-2.2 1.7-2.2 3.1 0 1.2.6 2.6 2.3 2.6.9 0 1.3-.4 1.6-.6v-4.5zM91 24.2h-6.7c.1 1.7 1.2 2.6 3.1 2.6 1.2 0 2.1-.4 3.5-1.3v1.9c-1.7 1.2-3.4 1.2-4.2 1.2-3.3 0-5.4-1.9-5.4-4.9 0-2.9 2.1-4.9 4.9-4.9 2.7.1 5 2.1 4.8 5.4zm-2.5-1.5c-.1-1.3-.9-2.1-2.1-2.1-1.2 0-1.9.7-2.1 2.1h4.2zm36.6 1.6h-6.7c.1 1.7 1.2 2.6 3.1 2.6 1.2 0 2.1-.4 3.5-1.3v1.9c-1.7 1.2-3.4 1.2-4.2 1.2-3.3 0-5.4-1.9-5.4-4.9 0-2.9 2.1-4.9 4.9-4.9 2.7 0 5 2 4.8 5.4zm-2.5-1.6c-.1-1.3-.9-2.1-2.1-2.1-1.1 0-1.9.7-2.1 2.1h4.2zm-15.2-8.1h-2.9v13.8h2.9v-5.5c0-.9.6-1.9 2-1.9.9 0 1.5.6 1.5 2.1v5.4h2.9v-6c0-2.6-1.7-3.6-3.4-3.6-1.1 0-2.1.5-3 1.6v-5.9zm40.9 0h-2.9v13.8h2.9v-5.5c0-.9.6-1.9 2-1.9.9 0 1.5.6 1.5 2.1v5.4h2.9v-6c0-2.6-1.7-3.6-3.4-3.6-1.1 0-2.1.5-3 1.6v-5.9zm-90.2.9c-1.7-.7-3.1-1.1-4.7-1.1-3.2 0-5.3 1.6-5.3 4 0 5 7 4.1 7 6.4 0 .8-.7 1.2-2.1 1.2-1.5 0-2.7-.5-4.7-1.8v3c1.4.7 2.6 1.3 5 1.3 3.1 0 5.3-1.6 5.3-4.2 0-4.9-7-4.2-7-6.4 0-.7.8-1.1 2.1-1.1 1.2 0 2.4.4 4.4 1.2v-2.5zm100-1c-.9 0-1.6.7-1.6 1.6 0 .9.7 1.6 1.6 1.6.9 0 1.6-.7 1.6-1.6 0-.9-.7-1.6-1.6-1.6zm1.5 14v-9.3h-2.9v9.3h2.9zm5.2-13.9h-2.9v10.2c0 1.9.5 3.7 3.6 3.9l.9-2.1c-1.2-.2-1.6-.8-1.6-2.2v-9.8zm17.4 4.5h-2.9v9.3h2.9v-4.1c0-1.7.9-2.7 2.4-2.7.4 0 1 .2 1.7.7l.8-2.6c-.9-.6-1.4-.9-1.9-.9-.9 0-2.3.5-3.1 2.4l.1-2.1zm15.1 5.2h-6.7c.1 1.7 1.2 2.6 3.1 2.6 1.2 0 2.1-.4 3.5-1.3v1.9c-1.7 1.2-3.4 1.2-4.2 1.2-3.3 0-5.4-1.9-5.4-4.9 0-2.9 2.1-4.9 4.9-4.9 2.7 0 5 2 4.8 5.4zm-2.6-1.6c-.1-1.3-.9-2.1-2.1-2.1-1.2 0-1.9.7-2.1 2.1h4.2zm10.4-3.8c-1.1 0-2.1.5-3 1.6v-1.4h-2.9v9.3h2.9v-5.5c0-.8.6-1.8 2-1.8.9 0 1.5.6 1.5 2.1v5.4h2.9v-6c0-2.6-1.7-3.7-3.4-3.7zm-28-4.3h-2.9v4.9c-.8-.4-1.6-.6-2.4-.6-2.7 0-4.6 2-4.6 4.9 0 2.8 1.9 4.9 4.4 4.9 1 0 1.7-.2 2.6-.9v.7h2.9V14.6zm-2.9 11.3c-.6.6-1.1.7-1.7.7-1.4 0-2.2-1.1-2.2-2.9 0-1.9.9-2.9 2.4-2.9.5 0 1.2.2 1.6.6l-.1 4.5zm-93-6.8H78l-2 5.2-2-5.2h-2.9l4 9.3h1.8l4.3-9.3z" class="st1"/></svg>