<svg xmlns="http://www.w3.org/2000/svg" xml:space="preserve" style="fill-rule:evenodd;clip-rule:evenodd;stroke-linejoin:round;stroke-miterlimit:2" viewBox="0 0 500 500"><path d="M6.5 344.494h52v134.861h-52z" style="fill:#bc4749" transform="matrix(1.15385 0 0 1.3362 9 -157.011)"/><path d="M6.5 344.494h52v134.861h-52z" style="fill:#bc4749" transform="matrix(1.15385 0 0 .83124 90.4 85.04)"/><path d="M6.5 344.494h52v134.861h-52z" style="fill:#bc4749" transform="matrix(1.15385 0 0 1.75953 171.8 -359.94)"/><path d="M6.5 344.494h52v134.861h-52z" style="fill:#bc4749" transform="matrix(1.15385 0 0 2.64421 253.2 -784.014)"/><path d="M6.5 344.494h52v134.861h-52z" style="fill:#bc4749" transform="matrix(1.15385 0 0 1.3362 334.6 -157.011)"/><path d="M6.5 344.494h52v134.861h-52z" style="fill:#bc4749" transform="matrix(1.15385 0 0 3.46284 416 -1176.42)"/></svg>