<?xml version="1.0" encoding="UTF-8" standalone="no"?>
<!DOCTYPE svg PUBLIC "-//W3C//DTD SVG 1.1//EN" "http://www.w3.org/Graphics/SVG/1.1/DTD/svg11.dtd">
<svg width="100%" height="100%" viewBox="0 0 500 500" version="1.1" xmlns="http://www.w3.org/2000/svg" xmlns:xlink="http://www.w3.org/1999/xlink" xml:space="preserve" xmlns:serif="http://www.serif.com/" style="fill-rule:evenodd;clip-rule:evenodd;stroke-linejoin:round;stroke-miterlimit:2;">
    <g transform="matrix(1.15385,0,0,1.3362,9,-157.011)">
        <rect x="6.5" y="344.494" width="52" height="134.861" style="fill:rgb(224,122,95);"/>
    </g>
    <g transform="matrix(1.15385,0,0,0.831243,90.4,85.0402)">
        <rect x="6.5" y="344.494" width="52" height="134.861" style="fill:rgb(224,122,95);"/>
    </g>
    <g transform="matrix(1.15385,0,0,1.75953,171.8,-359.94)">
        <rect x="6.5" y="344.494" width="52" height="134.861" style="fill:rgb(224,122,95);"/>
    </g>
    <g transform="matrix(1.15385,0,0,2.64421,253.2,-784.014)">
        <rect x="6.5" y="344.494" width="52" height="134.861" style="fill:rgb(224,122,95);"/>
    </g>
    <g transform="matrix(1.15385,0,0,1.3362,334.6,-157.011)">
        <rect x="6.5" y="344.494" width="52" height="134.861" style="fill:rgb(224,122,95);"/>
    </g>
    <g transform="matrix(1.15385,0,0,3.46284,416,-1176.42)">
        <rect x="6.5" y="344.494" width="52" height="134.861" style="fill:rgb(224,122,95);"/>
    </g>
</svg>
